G04 (created by PCBNEW (2013-jul-07)-stable) date Sun 31 May 2015 11:01:27 BST*
%MOIN*%
G04 Gerber Fmt 3.4, Leading zero omitted, Abs format*
%FSLAX34Y34*%
G01*
G70*
G90*
G04 APERTURE LIST*
%ADD10C,0.00590551*%
%ADD11C,0.00787402*%
%ADD12C,0.0035*%
G04 APERTURE END LIST*
G54D10*
G54D11*
X73346Y-65730D02*
G75*
G03X73346Y-65730I-116J0D01*
G74*
G01*
X74360Y-65730D02*
G75*
G03X74360Y-65730I-1120J0D01*
G74*
G01*
G54D10*
X76127Y-74265D02*
X76052Y-74265D01*
X76014Y-74284D01*
X75977Y-74321D01*
X75958Y-74396D01*
X75958Y-74528D01*
X75977Y-74603D01*
X76014Y-74640D01*
X76052Y-74659D01*
X76127Y-74659D01*
X76164Y-74640D01*
X76202Y-74603D01*
X76221Y-74528D01*
X76221Y-74396D01*
X76202Y-74321D01*
X76164Y-74284D01*
X76127Y-74265D01*
X75789Y-74396D02*
X75789Y-74790D01*
X75789Y-74415D02*
X75752Y-74396D01*
X75677Y-74396D01*
X75639Y-74415D01*
X75621Y-74434D01*
X75602Y-74471D01*
X75602Y-74584D01*
X75621Y-74621D01*
X75639Y-74640D01*
X75677Y-74659D01*
X75752Y-74659D01*
X75789Y-74640D01*
X75489Y-74396D02*
X75339Y-74396D01*
X75433Y-74265D02*
X75433Y-74603D01*
X75414Y-74640D01*
X75377Y-74659D01*
X75339Y-74659D01*
X75208Y-74659D02*
X75208Y-74396D01*
X75208Y-74265D02*
X75227Y-74284D01*
X75208Y-74303D01*
X75189Y-74284D01*
X75208Y-74265D01*
X75208Y-74303D01*
X75021Y-74659D02*
X75021Y-74265D01*
X74889Y-74546D01*
X74758Y-74265D01*
X74758Y-74659D01*
X74514Y-74659D02*
X74552Y-74640D01*
X74571Y-74621D01*
X74589Y-74584D01*
X74589Y-74471D01*
X74571Y-74434D01*
X74552Y-74415D01*
X74514Y-74396D01*
X74458Y-74396D01*
X74421Y-74415D01*
X74402Y-74434D01*
X74383Y-74471D01*
X74383Y-74584D01*
X74402Y-74621D01*
X74421Y-74640D01*
X74458Y-74659D01*
X74514Y-74659D01*
X74046Y-74396D02*
X74046Y-74659D01*
X74215Y-74396D02*
X74215Y-74603D01*
X74196Y-74640D01*
X74158Y-74659D01*
X74102Y-74659D01*
X74065Y-74640D01*
X74046Y-74621D01*
X73877Y-74640D02*
X73840Y-74659D01*
X73765Y-74659D01*
X73727Y-74640D01*
X73708Y-74603D01*
X73708Y-74584D01*
X73727Y-74546D01*
X73765Y-74528D01*
X73821Y-74528D01*
X73858Y-74509D01*
X73877Y-74471D01*
X73877Y-74453D01*
X73858Y-74415D01*
X73821Y-74396D01*
X73765Y-74396D01*
X73727Y-74415D01*
X73390Y-74640D02*
X73427Y-74659D01*
X73502Y-74659D01*
X73540Y-74640D01*
X73558Y-74603D01*
X73558Y-74453D01*
X73540Y-74415D01*
X73502Y-74396D01*
X73427Y-74396D01*
X73390Y-74415D01*
X73371Y-74453D01*
X73371Y-74490D01*
X73558Y-74528D01*
X72977Y-74621D02*
X72996Y-74640D01*
X73052Y-74659D01*
X73090Y-74659D01*
X73146Y-74640D01*
X73183Y-74603D01*
X73202Y-74565D01*
X73221Y-74490D01*
X73221Y-74434D01*
X73202Y-74359D01*
X73183Y-74321D01*
X73146Y-74284D01*
X73090Y-74265D01*
X73052Y-74265D01*
X72996Y-74284D01*
X72977Y-74303D01*
X72640Y-74659D02*
X72640Y-74453D01*
X72658Y-74415D01*
X72696Y-74396D01*
X72771Y-74396D01*
X72808Y-74415D01*
X72640Y-74640D02*
X72677Y-74659D01*
X72771Y-74659D01*
X72808Y-74640D01*
X72827Y-74603D01*
X72827Y-74565D01*
X72808Y-74528D01*
X72771Y-74509D01*
X72677Y-74509D01*
X72640Y-74490D01*
X72452Y-74659D02*
X72452Y-74396D01*
X72452Y-74434D02*
X72434Y-74415D01*
X72396Y-74396D01*
X72340Y-74396D01*
X72302Y-74415D01*
X72284Y-74453D01*
X72284Y-74659D01*
X72284Y-74453D02*
X72265Y-74415D01*
X72227Y-74396D01*
X72171Y-74396D01*
X72134Y-74415D01*
X72115Y-74453D01*
X72115Y-74659D01*
X71665Y-74396D02*
X71571Y-74659D01*
X71477Y-74396D01*
X70821Y-74659D02*
X71046Y-74659D01*
X70934Y-74659D02*
X70934Y-74265D01*
X70971Y-74321D01*
X71009Y-74359D01*
X71046Y-74378D01*
X70652Y-74621D02*
X70634Y-74640D01*
X70652Y-74659D01*
X70671Y-74640D01*
X70652Y-74621D01*
X70652Y-74659D01*
X70390Y-74265D02*
X70353Y-74265D01*
X70315Y-74284D01*
X70296Y-74303D01*
X70278Y-74340D01*
X70259Y-74415D01*
X70259Y-74509D01*
X70278Y-74584D01*
X70296Y-74621D01*
X70315Y-74640D01*
X70353Y-74659D01*
X70390Y-74659D01*
X70428Y-74640D01*
X70446Y-74621D01*
X70465Y-74584D01*
X70484Y-74509D01*
X70484Y-74415D01*
X70465Y-74340D01*
X70446Y-74303D01*
X70428Y-74284D01*
X70390Y-74265D01*
X69678Y-74809D02*
X69696Y-74790D01*
X69734Y-74734D01*
X69753Y-74696D01*
X69771Y-74640D01*
X69790Y-74546D01*
X69790Y-74471D01*
X69771Y-74378D01*
X69753Y-74321D01*
X69734Y-74284D01*
X69696Y-74228D01*
X69678Y-74209D01*
X69303Y-74621D02*
X69321Y-74640D01*
X69378Y-74659D01*
X69415Y-74659D01*
X69471Y-74640D01*
X69509Y-74603D01*
X69528Y-74565D01*
X69546Y-74490D01*
X69546Y-74434D01*
X69528Y-74359D01*
X69509Y-74321D01*
X69471Y-74284D01*
X69415Y-74265D01*
X69378Y-74265D01*
X69321Y-74284D01*
X69303Y-74303D01*
X69171Y-74809D02*
X69153Y-74790D01*
X69115Y-74734D01*
X69096Y-74696D01*
X69078Y-74640D01*
X69059Y-74546D01*
X69059Y-74471D01*
X69078Y-74378D01*
X69096Y-74321D01*
X69115Y-74284D01*
X69153Y-74228D01*
X69171Y-74209D01*
X68571Y-74659D02*
X68571Y-74265D01*
X68478Y-74265D01*
X68422Y-74284D01*
X68384Y-74321D01*
X68365Y-74359D01*
X68347Y-74434D01*
X68347Y-74490D01*
X68365Y-74565D01*
X68384Y-74603D01*
X68422Y-74640D01*
X68478Y-74659D01*
X68571Y-74659D01*
X68009Y-74659D02*
X68009Y-74453D01*
X68028Y-74415D01*
X68065Y-74396D01*
X68140Y-74396D01*
X68178Y-74415D01*
X68009Y-74640D02*
X68047Y-74659D01*
X68140Y-74659D01*
X68178Y-74640D01*
X68197Y-74603D01*
X68197Y-74565D01*
X68178Y-74528D01*
X68140Y-74509D01*
X68047Y-74509D01*
X68009Y-74490D01*
X67859Y-74396D02*
X67765Y-74659D01*
X67672Y-74396D01*
X67372Y-74640D02*
X67409Y-74659D01*
X67484Y-74659D01*
X67522Y-74640D01*
X67540Y-74603D01*
X67540Y-74453D01*
X67522Y-74415D01*
X67484Y-74396D01*
X67409Y-74396D01*
X67372Y-74415D01*
X67353Y-74453D01*
X67353Y-74490D01*
X67540Y-74528D01*
X66753Y-74453D02*
X66697Y-74471D01*
X66678Y-74490D01*
X66659Y-74528D01*
X66659Y-74584D01*
X66678Y-74621D01*
X66697Y-74640D01*
X66734Y-74659D01*
X66884Y-74659D01*
X66884Y-74265D01*
X66753Y-74265D01*
X66715Y-74284D01*
X66697Y-74303D01*
X66678Y-74340D01*
X66678Y-74378D01*
X66697Y-74415D01*
X66715Y-74434D01*
X66753Y-74453D01*
X66884Y-74453D01*
X66341Y-74640D02*
X66378Y-74659D01*
X66453Y-74659D01*
X66491Y-74640D01*
X66509Y-74603D01*
X66509Y-74453D01*
X66491Y-74415D01*
X66453Y-74396D01*
X66378Y-74396D01*
X66341Y-74415D01*
X66322Y-74453D01*
X66322Y-74490D01*
X66509Y-74528D01*
X66153Y-74659D02*
X66153Y-74396D01*
X66153Y-74471D02*
X66134Y-74434D01*
X66116Y-74415D01*
X66078Y-74396D01*
X66041Y-74396D01*
X65909Y-74659D02*
X65909Y-74265D01*
X65872Y-74509D02*
X65759Y-74659D01*
X65759Y-74396D02*
X65909Y-74546D01*
X65441Y-74640D02*
X65478Y-74659D01*
X65553Y-74659D01*
X65591Y-74640D01*
X65609Y-74603D01*
X65609Y-74453D01*
X65591Y-74415D01*
X65553Y-74396D01*
X65478Y-74396D01*
X65441Y-74415D01*
X65422Y-74453D01*
X65422Y-74490D01*
X65609Y-74528D01*
X65197Y-74659D02*
X65234Y-74640D01*
X65253Y-74603D01*
X65253Y-74265D01*
X64897Y-74640D02*
X64934Y-74659D01*
X65009Y-74659D01*
X65047Y-74640D01*
X65066Y-74603D01*
X65066Y-74453D01*
X65047Y-74415D01*
X65009Y-74396D01*
X64934Y-74396D01*
X64897Y-74415D01*
X64878Y-74453D01*
X64878Y-74490D01*
X65066Y-74528D01*
X64747Y-74396D02*
X64653Y-74659D01*
X64559Y-74396D02*
X64653Y-74659D01*
X64691Y-74753D01*
X64709Y-74771D01*
X64747Y-74790D01*
X64128Y-74303D02*
X64110Y-74284D01*
X64072Y-74265D01*
X63978Y-74265D01*
X63941Y-74284D01*
X63922Y-74303D01*
X63903Y-74340D01*
X63903Y-74378D01*
X63922Y-74434D01*
X64147Y-74659D01*
X63903Y-74659D01*
X63660Y-74265D02*
X63622Y-74265D01*
X63585Y-74284D01*
X63566Y-74303D01*
X63547Y-74340D01*
X63528Y-74415D01*
X63528Y-74509D01*
X63547Y-74584D01*
X63566Y-74621D01*
X63585Y-74640D01*
X63622Y-74659D01*
X63660Y-74659D01*
X63697Y-74640D01*
X63716Y-74621D01*
X63735Y-74584D01*
X63753Y-74509D01*
X63753Y-74415D01*
X63735Y-74340D01*
X63716Y-74303D01*
X63697Y-74284D01*
X63660Y-74265D01*
X63153Y-74659D02*
X63378Y-74659D01*
X63266Y-74659D02*
X63266Y-74265D01*
X63303Y-74321D01*
X63341Y-74359D01*
X63378Y-74378D01*
X62797Y-74265D02*
X62985Y-74265D01*
X63003Y-74453D01*
X62985Y-74434D01*
X62947Y-74415D01*
X62853Y-74415D01*
X62816Y-74434D01*
X62797Y-74453D01*
X62778Y-74490D01*
X62778Y-74584D01*
X62797Y-74621D01*
X62816Y-74640D01*
X62853Y-74659D01*
X62947Y-74659D01*
X62985Y-74640D01*
X63003Y-74621D01*
G54D12*
X74787Y-69223D02*
X74763Y-69271D01*
X74715Y-69318D01*
X74644Y-69390D01*
X74620Y-69437D01*
X74620Y-69485D01*
X74739Y-69461D02*
X74715Y-69509D01*
X74667Y-69556D01*
X74572Y-69580D01*
X74406Y-69580D01*
X74310Y-69556D01*
X74263Y-69509D01*
X74239Y-69461D01*
X74239Y-69366D01*
X74263Y-69318D01*
X74310Y-69271D01*
X74406Y-69247D01*
X74572Y-69247D01*
X74667Y-69271D01*
X74715Y-69318D01*
X74739Y-69366D01*
X74739Y-69461D01*
X74739Y-68771D02*
X74739Y-69056D01*
X74739Y-68914D02*
X74239Y-68914D01*
X74310Y-68961D01*
X74358Y-69009D01*
X74382Y-69056D01*
X72723Y-70580D02*
X72747Y-70604D01*
X72771Y-70676D01*
X72771Y-70723D01*
X72747Y-70795D01*
X72699Y-70842D01*
X72652Y-70866D01*
X72557Y-70890D01*
X72485Y-70890D01*
X72390Y-70866D01*
X72342Y-70842D01*
X72295Y-70795D01*
X72271Y-70723D01*
X72271Y-70676D01*
X72295Y-70604D01*
X72319Y-70580D01*
X72747Y-70390D02*
X72771Y-70318D01*
X72771Y-70199D01*
X72747Y-70152D01*
X72723Y-70128D01*
X72676Y-70104D01*
X72628Y-70104D01*
X72580Y-70128D01*
X72557Y-70152D01*
X72533Y-70199D01*
X72509Y-70295D01*
X72485Y-70342D01*
X72461Y-70366D01*
X72414Y-70390D01*
X72366Y-70390D01*
X72319Y-70366D01*
X72295Y-70342D01*
X72271Y-70295D01*
X72271Y-70176D01*
X72295Y-70104D01*
X72271Y-69961D02*
X72271Y-69675D01*
X72771Y-69818D02*
X72271Y-69818D01*
X72771Y-69271D02*
X72771Y-69509D01*
X72271Y-69509D01*
X72747Y-69128D02*
X72771Y-69056D01*
X72771Y-68937D01*
X72747Y-68890D01*
X72723Y-68866D01*
X72676Y-68842D01*
X72628Y-68842D01*
X72580Y-68866D01*
X72557Y-68890D01*
X72533Y-68937D01*
X72509Y-69033D01*
X72485Y-69080D01*
X72461Y-69104D01*
X72414Y-69128D01*
X72366Y-69128D01*
X72319Y-69104D01*
X72295Y-69080D01*
X72271Y-69033D01*
X72271Y-68914D01*
X72295Y-68842D01*
X72819Y-68747D02*
X72819Y-68366D01*
X72295Y-67985D02*
X72271Y-68033D01*
X72271Y-68104D01*
X72295Y-68175D01*
X72342Y-68223D01*
X72390Y-68247D01*
X72485Y-68271D01*
X72557Y-68271D01*
X72652Y-68247D01*
X72699Y-68223D01*
X72747Y-68175D01*
X72771Y-68104D01*
X72771Y-68056D01*
X72747Y-67985D01*
X72723Y-67961D01*
X72557Y-67961D01*
X72557Y-68056D01*
X72936Y-62199D02*
X72960Y-62175D01*
X72984Y-62199D01*
X72960Y-62223D01*
X72936Y-62199D01*
X72984Y-62199D01*
X72508Y-62294D02*
X72484Y-62246D01*
X72484Y-62127D01*
X72508Y-62080D01*
X72555Y-62056D01*
X72603Y-62056D01*
X72651Y-62080D01*
X72674Y-62103D01*
X72698Y-62151D01*
X72722Y-62175D01*
X72770Y-62199D01*
X72793Y-62199D01*
X72936Y-61770D02*
X72960Y-61746D01*
X72984Y-61770D01*
X72960Y-61794D01*
X72936Y-61770D01*
X72984Y-61770D01*
X72508Y-61865D02*
X72484Y-61818D01*
X72484Y-61699D01*
X72508Y-61651D01*
X72555Y-61627D01*
X72603Y-61627D01*
X72651Y-61651D01*
X72674Y-61675D01*
X72698Y-61723D01*
X72722Y-61746D01*
X72770Y-61770D01*
X72793Y-61770D01*
X72984Y-61151D02*
X72984Y-61437D01*
X72984Y-61294D02*
X72484Y-61294D01*
X72555Y-61342D01*
X72603Y-61389D01*
X72627Y-61437D01*
X74022Y-63800D02*
X74022Y-63562D01*
X74165Y-63848D02*
X73665Y-63681D01*
X74165Y-63515D01*
X74165Y-63348D02*
X73665Y-63348D01*
X74165Y-63062D01*
X73665Y-63062D01*
X74165Y-62824D02*
X73665Y-62824D01*
X73665Y-62705D01*
X73689Y-62634D01*
X73736Y-62586D01*
X73784Y-62562D01*
X73879Y-62539D01*
X73951Y-62539D01*
X74046Y-62562D01*
X74093Y-62586D01*
X74141Y-62634D01*
X74165Y-62705D01*
X74165Y-62824D01*
X74141Y-62348D02*
X74165Y-62277D01*
X74165Y-62158D01*
X74141Y-62110D01*
X74117Y-62086D01*
X74070Y-62062D01*
X74022Y-62062D01*
X73974Y-62086D01*
X73951Y-62110D01*
X73927Y-62158D01*
X73903Y-62253D01*
X73879Y-62300D01*
X73855Y-62324D01*
X73808Y-62348D01*
X73760Y-62348D01*
X73713Y-62324D01*
X73689Y-62300D01*
X73665Y-62253D01*
X73665Y-62134D01*
X73689Y-62062D01*
X73974Y-61848D02*
X73974Y-61467D01*
X73713Y-61253D02*
X73689Y-61229D01*
X73665Y-61181D01*
X73665Y-61062D01*
X73689Y-61015D01*
X73713Y-60991D01*
X73760Y-60967D01*
X73808Y-60967D01*
X73879Y-60991D01*
X74165Y-61277D01*
X74165Y-60967D01*
X73665Y-60539D02*
X73665Y-60634D01*
X73689Y-60681D01*
X73713Y-60705D01*
X73784Y-60753D01*
X73879Y-60777D01*
X74070Y-60777D01*
X74117Y-60753D01*
X74141Y-60729D01*
X74165Y-60681D01*
X74165Y-60586D01*
X74141Y-60539D01*
X74117Y-60515D01*
X74070Y-60491D01*
X73951Y-60491D01*
X73903Y-60515D01*
X73879Y-60539D01*
X73855Y-60586D01*
X73855Y-60681D01*
X73879Y-60729D01*
X73903Y-60753D01*
X73951Y-60777D01*
X74165Y-60015D02*
X74165Y-60300D01*
X74165Y-60158D02*
X73665Y-60158D01*
X73736Y-60205D01*
X73784Y-60253D01*
X73808Y-60300D01*
X73665Y-59705D02*
X73665Y-59658D01*
X73689Y-59610D01*
X73713Y-59586D01*
X73760Y-59562D01*
X73855Y-59539D01*
X73974Y-59539D01*
X74070Y-59562D01*
X74117Y-59586D01*
X74141Y-59610D01*
X74165Y-59658D01*
X74165Y-59705D01*
X74141Y-59753D01*
X74117Y-59777D01*
X74070Y-59800D01*
X73974Y-59824D01*
X73855Y-59824D01*
X73760Y-59800D01*
X73713Y-59777D01*
X73689Y-59753D01*
X73665Y-59705D01*
M02*
