G04 (created by PCBNEW (2013-jul-07)-stable) date Sun 31 May 2015 11:01:27 BST*
%MOIN*%
G04 Gerber Fmt 3.4, Leading zero omitted, Abs format*
%FSLAX34Y34*%
G01*
G70*
G90*
G04 APERTURE LIST*
%ADD10C,0.00590551*%
%ADD11O,0.104X0.052*%
%ADD12C,0.06*%
%ADD13C,0.066*%
%ADD14C,0.055*%
%ADD15R,0.055X0.055*%
%ADD16R,0.09X0.062*%
%ADD17O,0.09X0.062*%
%ADD18C,0.15748*%
%ADD19C,0.16*%
%ADD20C,0.01*%
G04 APERTURE END LIST*
G54D10*
G54D11*
X73500Y-68516D03*
X73500Y-69500D03*
X73500Y-70484D03*
G54D12*
X75000Y-60000D03*
X71000Y-60000D03*
X75000Y-59000D03*
X71000Y-59000D03*
X75500Y-71500D03*
X71500Y-71500D03*
X75500Y-72500D03*
X71500Y-72500D03*
G54D13*
X71500Y-62000D03*
X70500Y-62000D03*
X76000Y-62000D03*
X75000Y-62000D03*
X76000Y-69000D03*
X75000Y-69000D03*
X71500Y-69000D03*
X70500Y-69000D03*
G54D14*
X77500Y-61500D03*
X77500Y-63500D03*
G54D15*
X77500Y-68500D03*
G54D14*
X77500Y-67500D03*
G54D15*
X77500Y-66000D03*
G54D14*
X77500Y-65000D03*
G54D16*
X63000Y-59000D03*
G54D17*
X63000Y-60000D03*
X63000Y-61000D03*
X63000Y-62000D03*
X63000Y-63000D03*
X63000Y-64000D03*
X63000Y-65000D03*
X63000Y-66000D03*
X63000Y-67000D03*
X63000Y-68000D03*
X63000Y-69000D03*
X63000Y-70000D03*
X63000Y-71000D03*
X63000Y-72000D03*
X63000Y-73000D03*
X69000Y-73000D03*
X69000Y-72000D03*
X69000Y-71000D03*
X69000Y-70000D03*
X69000Y-69000D03*
X69000Y-68000D03*
X69000Y-67000D03*
X69000Y-66000D03*
X69000Y-65000D03*
X69000Y-64000D03*
X69000Y-63000D03*
X69000Y-62000D03*
X69000Y-61000D03*
X69000Y-60000D03*
X69000Y-59000D03*
G54D13*
X70788Y-66516D03*
X70788Y-65729D03*
X70788Y-64941D03*
X70788Y-64154D03*
X75669Y-64548D03*
X75669Y-65335D03*
X75669Y-66123D03*
X75669Y-66910D03*
G54D18*
X77500Y-73000D03*
X77500Y-59000D03*
G54D19*
X65000Y-59000D03*
X65000Y-73000D03*
G54D20*
X63000Y-70000D02*
X63500Y-70000D01*
X75000Y-58000D02*
X75000Y-59000D01*
X67500Y-58000D02*
X75000Y-58000D01*
X67500Y-68500D02*
X67500Y-58000D01*
X65000Y-68500D02*
X67500Y-68500D01*
X63500Y-70000D02*
X65000Y-68500D01*
X75500Y-72500D02*
X75500Y-71500D01*
X75500Y-71500D02*
X77500Y-69500D01*
X77500Y-69500D02*
X77500Y-68500D01*
X75000Y-60000D02*
X75500Y-60000D01*
X77000Y-61500D02*
X77500Y-61500D01*
X75500Y-60000D02*
X77000Y-61500D01*
X75000Y-59000D02*
X75000Y-60000D01*
X74500Y-66000D02*
X74500Y-67500D01*
X74500Y-67500D02*
X76500Y-67500D01*
X76500Y-67500D02*
X77000Y-68000D01*
X77000Y-68000D02*
X77500Y-68500D01*
X77500Y-61500D02*
X77500Y-62500D01*
X77500Y-62500D02*
X77000Y-62500D01*
X77000Y-62500D02*
X76000Y-63500D01*
X76000Y-63500D02*
X74500Y-63500D01*
X74500Y-63500D02*
X74500Y-66000D01*
X74623Y-66123D02*
X75669Y-66123D01*
X74500Y-66000D02*
X74623Y-66123D01*
X73500Y-69500D02*
X74500Y-68500D01*
X74500Y-71500D02*
X74500Y-73500D01*
X76500Y-69500D02*
X74500Y-71500D01*
X76500Y-68500D02*
X76500Y-69500D01*
X76000Y-68000D02*
X76500Y-68500D01*
X75000Y-68000D02*
X76000Y-68000D01*
X74500Y-68500D02*
X75000Y-68000D01*
X63000Y-72000D02*
X63500Y-72000D01*
X65500Y-70000D02*
X69000Y-70000D01*
X63500Y-72000D02*
X65500Y-70000D01*
X74500Y-73500D02*
X76000Y-73500D01*
X78500Y-69500D02*
X78500Y-67500D01*
X76000Y-72000D02*
X78500Y-69500D01*
X76000Y-73500D02*
X76000Y-72000D01*
X74500Y-73500D02*
X74000Y-73500D01*
X74000Y-73500D02*
X70000Y-73500D01*
X69500Y-70000D02*
X69000Y-70000D01*
X70000Y-70500D02*
X69500Y-70000D01*
X70000Y-73500D02*
X70000Y-70500D01*
X77500Y-65000D02*
X78500Y-65000D01*
X78500Y-65000D02*
X78500Y-66500D01*
X78500Y-66500D02*
X78500Y-67500D01*
X78500Y-67500D02*
X77500Y-67500D01*
X77500Y-63500D02*
X77500Y-65000D01*
X75669Y-65335D02*
X76335Y-65335D01*
X76670Y-65000D02*
X77500Y-65000D01*
X76335Y-65335D02*
X76670Y-65000D01*
X71000Y-59000D02*
X72000Y-59000D01*
X76000Y-61500D02*
X76000Y-62000D01*
X75500Y-61000D02*
X76000Y-61500D01*
X72500Y-61000D02*
X75500Y-61000D01*
X72000Y-60500D02*
X72500Y-61000D01*
X72000Y-59000D02*
X72000Y-60500D01*
X71500Y-71500D02*
X74000Y-71500D01*
X76000Y-69500D02*
X76000Y-69000D01*
X74000Y-71500D02*
X76000Y-69500D01*
X71500Y-69000D02*
X71500Y-70000D01*
X70500Y-72500D02*
X71500Y-72500D01*
X70500Y-71000D02*
X70500Y-72500D01*
X71500Y-70000D02*
X70500Y-71000D01*
X69000Y-63000D02*
X72000Y-63000D01*
X73000Y-62000D02*
X75000Y-62000D01*
X72000Y-63000D02*
X73000Y-62000D01*
X69000Y-67000D02*
X69500Y-67500D01*
X70000Y-68500D02*
X70500Y-69000D01*
X70000Y-68000D02*
X70000Y-68500D01*
X69500Y-67500D02*
X70000Y-68000D01*
X72000Y-71000D02*
X74000Y-71000D01*
X70500Y-67500D02*
X71500Y-67500D01*
X71500Y-67500D02*
X72000Y-68000D01*
X72000Y-68000D02*
X72000Y-71000D01*
X69000Y-66000D02*
X70500Y-67500D01*
X75000Y-70000D02*
X75000Y-69000D01*
X74000Y-71000D02*
X75000Y-70000D01*
X69000Y-65000D02*
X70729Y-65000D01*
X70729Y-65000D02*
X70788Y-64941D01*
X69000Y-64000D02*
X70000Y-64000D01*
X70154Y-64154D02*
X70788Y-64154D01*
X70000Y-64000D02*
X70154Y-64154D01*
X70788Y-66516D02*
X71484Y-66516D01*
X72484Y-70484D02*
X73500Y-70484D01*
X72468Y-70468D02*
X72484Y-70484D01*
X72468Y-67500D02*
X72468Y-70468D01*
X71484Y-66516D02*
X72468Y-67500D01*
X70788Y-65729D02*
X71229Y-65729D01*
X73500Y-68000D02*
X73500Y-68516D01*
X71229Y-65729D02*
X73500Y-68000D01*
X75669Y-66910D02*
X76410Y-66910D01*
X77320Y-66000D02*
X77500Y-66000D01*
X76410Y-66910D02*
X77320Y-66000D01*
X69000Y-62000D02*
X70500Y-62000D01*
X71000Y-60000D02*
X71000Y-60500D01*
X71500Y-61000D02*
X71500Y-62000D01*
X71000Y-60500D02*
X71500Y-61000D01*
G54D10*
G36*
X75745Y-65340D02*
X75674Y-65411D01*
X75669Y-65405D01*
X75663Y-65411D01*
X75598Y-65346D01*
X75592Y-65340D01*
X75598Y-65335D01*
X75592Y-65329D01*
X75663Y-65258D01*
X75669Y-65264D01*
X75674Y-65258D01*
X75745Y-65329D01*
X75739Y-65335D01*
X75745Y-65340D01*
X75745Y-65340D01*
G37*
G54D20*
X75745Y-65340D02*
X75674Y-65411D01*
X75669Y-65405D01*
X75663Y-65411D01*
X75598Y-65346D01*
X75592Y-65340D01*
X75598Y-65335D01*
X75592Y-65329D01*
X75663Y-65258D01*
X75669Y-65264D01*
X75674Y-65258D01*
X75745Y-65329D01*
X75739Y-65335D01*
X75745Y-65340D01*
G54D10*
G36*
X78950Y-74450D02*
X78537Y-74450D01*
X78537Y-72794D01*
X78537Y-58794D01*
X78379Y-58413D01*
X78088Y-58121D01*
X77707Y-57962D01*
X77294Y-57962D01*
X76913Y-58120D01*
X76621Y-58411D01*
X76462Y-58792D01*
X76462Y-59205D01*
X76620Y-59586D01*
X76911Y-59878D01*
X77292Y-60037D01*
X77705Y-60037D01*
X78086Y-59879D01*
X78378Y-59588D01*
X78537Y-59207D01*
X78537Y-58794D01*
X78537Y-72794D01*
X78379Y-72413D01*
X78088Y-72121D01*
X78029Y-72096D01*
X78029Y-67575D01*
X78029Y-65075D01*
X78029Y-63575D01*
X78018Y-63367D01*
X77960Y-63227D01*
X77867Y-63202D01*
X77797Y-63273D01*
X77797Y-63132D01*
X77772Y-63039D01*
X77575Y-62970D01*
X77367Y-62981D01*
X77227Y-63039D01*
X77202Y-63132D01*
X77500Y-63429D01*
X77797Y-63132D01*
X77797Y-63273D01*
X77570Y-63500D01*
X77867Y-63797D01*
X77960Y-63772D01*
X78029Y-63575D01*
X78029Y-65075D01*
X78018Y-64867D01*
X77960Y-64727D01*
X77867Y-64702D01*
X77797Y-64773D01*
X77797Y-64632D01*
X77797Y-63867D01*
X77500Y-63570D01*
X77429Y-63641D01*
X77429Y-63500D01*
X77132Y-63202D01*
X77039Y-63227D01*
X76970Y-63424D01*
X76981Y-63632D01*
X77039Y-63772D01*
X77132Y-63797D01*
X77429Y-63500D01*
X77429Y-63641D01*
X77202Y-63867D01*
X77227Y-63960D01*
X77424Y-64029D01*
X77632Y-64018D01*
X77772Y-63960D01*
X77797Y-63867D01*
X77797Y-64632D01*
X77772Y-64539D01*
X77575Y-64470D01*
X77367Y-64481D01*
X77227Y-64539D01*
X77202Y-64632D01*
X77500Y-64929D01*
X77797Y-64632D01*
X77797Y-64773D01*
X77570Y-65000D01*
X77867Y-65297D01*
X77960Y-65272D01*
X78029Y-65075D01*
X78029Y-67575D01*
X78018Y-67367D01*
X77960Y-67227D01*
X77867Y-67202D01*
X77797Y-67273D01*
X77797Y-67132D01*
X77772Y-67039D01*
X77575Y-66970D01*
X77367Y-66981D01*
X77227Y-67039D01*
X77202Y-67132D01*
X77500Y-67429D01*
X77797Y-67132D01*
X77797Y-67273D01*
X77570Y-67500D01*
X77867Y-67797D01*
X77960Y-67772D01*
X78029Y-67575D01*
X78029Y-72096D01*
X77707Y-71962D01*
X77294Y-71962D01*
X76913Y-72120D01*
X76621Y-72411D01*
X76462Y-72792D01*
X76462Y-73205D01*
X76620Y-73586D01*
X76911Y-73878D01*
X77292Y-74037D01*
X77705Y-74037D01*
X78086Y-73879D01*
X78378Y-73588D01*
X78537Y-73207D01*
X78537Y-72794D01*
X78537Y-74450D01*
X69713Y-74450D01*
X69713Y-73000D01*
X69671Y-72785D01*
X69549Y-72604D01*
X69394Y-72500D01*
X69549Y-72395D01*
X69671Y-72214D01*
X69713Y-72000D01*
X69671Y-71785D01*
X69549Y-71604D01*
X69394Y-71500D01*
X69549Y-71395D01*
X69671Y-71214D01*
X69713Y-71000D01*
X69671Y-70785D01*
X69549Y-70604D01*
X69394Y-70500D01*
X69400Y-70498D01*
X69571Y-70360D01*
X69676Y-70168D01*
X69683Y-70136D01*
X69634Y-70050D01*
X69050Y-70050D01*
X69050Y-70057D01*
X68950Y-70057D01*
X68950Y-70050D01*
X68365Y-70050D01*
X68316Y-70136D01*
X68323Y-70168D01*
X68428Y-70360D01*
X68599Y-70498D01*
X68605Y-70500D01*
X68450Y-70604D01*
X68328Y-70785D01*
X68286Y-71000D01*
X68328Y-71214D01*
X68450Y-71395D01*
X68605Y-71500D01*
X68450Y-71604D01*
X68328Y-71785D01*
X68286Y-72000D01*
X68328Y-72214D01*
X68450Y-72395D01*
X68605Y-72500D01*
X68450Y-72604D01*
X68328Y-72785D01*
X68286Y-73000D01*
X68328Y-73214D01*
X68450Y-73395D01*
X68631Y-73517D01*
X68846Y-73560D01*
X69153Y-73560D01*
X69368Y-73517D01*
X69549Y-73395D01*
X69671Y-73214D01*
X69713Y-73000D01*
X69713Y-74450D01*
X66050Y-74450D01*
X66050Y-72792D01*
X65890Y-72406D01*
X65595Y-72110D01*
X65209Y-71950D01*
X64792Y-71949D01*
X64406Y-72109D01*
X64110Y-72404D01*
X63950Y-72790D01*
X63949Y-73207D01*
X64109Y-73594D01*
X64404Y-73889D01*
X64790Y-74049D01*
X65207Y-74050D01*
X65594Y-73890D01*
X65889Y-73595D01*
X66049Y-73209D01*
X66050Y-72792D01*
X66050Y-74450D01*
X62550Y-74450D01*
X62550Y-73462D01*
X62631Y-73517D01*
X62846Y-73560D01*
X63153Y-73560D01*
X63368Y-73517D01*
X63549Y-73395D01*
X63671Y-73214D01*
X63713Y-73000D01*
X63671Y-72785D01*
X63549Y-72604D01*
X63394Y-72500D01*
X63400Y-72498D01*
X63571Y-72360D01*
X63676Y-72168D01*
X63683Y-72136D01*
X63634Y-72050D01*
X63050Y-72050D01*
X63050Y-72057D01*
X62950Y-72057D01*
X62950Y-72050D01*
X62942Y-72050D01*
X62942Y-71950D01*
X62950Y-71950D01*
X62950Y-71942D01*
X63050Y-71942D01*
X63050Y-71950D01*
X63634Y-71950D01*
X63683Y-71863D01*
X63676Y-71831D01*
X63571Y-71639D01*
X63400Y-71501D01*
X63394Y-71499D01*
X63549Y-71395D01*
X63671Y-71214D01*
X63713Y-71000D01*
X63671Y-70785D01*
X63549Y-70604D01*
X63394Y-70500D01*
X63549Y-70395D01*
X63640Y-70259D01*
X63640Y-70259D01*
X63712Y-70212D01*
X65124Y-68800D01*
X67500Y-68800D01*
X67614Y-68777D01*
X67712Y-68712D01*
X67777Y-68614D01*
X67800Y-68500D01*
X67800Y-58300D01*
X74700Y-58300D01*
X74700Y-58528D01*
X74688Y-58533D01*
X74534Y-58688D01*
X74450Y-58890D01*
X74449Y-59108D01*
X74533Y-59311D01*
X74688Y-59465D01*
X74700Y-59470D01*
X74700Y-59528D01*
X74688Y-59533D01*
X74534Y-59688D01*
X74450Y-59890D01*
X74449Y-60108D01*
X74533Y-60311D01*
X74688Y-60465D01*
X74890Y-60549D01*
X75108Y-60550D01*
X75311Y-60466D01*
X75426Y-60351D01*
X76787Y-61712D01*
X76787Y-61712D01*
X76885Y-61777D01*
X77000Y-61800D01*
X77057Y-61800D01*
X77200Y-61942D01*
X77200Y-62200D01*
X77000Y-62200D01*
X76885Y-62222D01*
X76787Y-62287D01*
X75875Y-63200D01*
X74500Y-63200D01*
X74385Y-63222D01*
X74287Y-63287D01*
X74222Y-63385D01*
X74200Y-63500D01*
X74200Y-66000D01*
X74200Y-67500D01*
X74222Y-67614D01*
X74287Y-67712D01*
X74385Y-67777D01*
X74500Y-67800D01*
X76375Y-67800D01*
X76787Y-68212D01*
X76787Y-68212D01*
X76787Y-68212D01*
X76974Y-68399D01*
X76974Y-68824D01*
X77012Y-68916D01*
X77083Y-68986D01*
X77175Y-69024D01*
X77200Y-69024D01*
X77200Y-69375D01*
X76580Y-69995D01*
X76580Y-68885D01*
X76491Y-68671D01*
X76328Y-68508D01*
X76115Y-68420D01*
X75885Y-68419D01*
X75671Y-68508D01*
X75508Y-68671D01*
X75500Y-68691D01*
X75491Y-68671D01*
X75328Y-68508D01*
X75115Y-68420D01*
X74885Y-68419D01*
X74671Y-68508D01*
X74508Y-68671D01*
X74420Y-68884D01*
X74419Y-69114D01*
X74508Y-69328D01*
X74671Y-69491D01*
X74700Y-69503D01*
X74700Y-69875D01*
X74253Y-70322D01*
X74246Y-70288D01*
X74135Y-70123D01*
X73970Y-70012D01*
X73867Y-69992D01*
X74001Y-69952D01*
X74155Y-69825D01*
X74250Y-69648D01*
X74253Y-69628D01*
X74204Y-69550D01*
X73550Y-69550D01*
X73550Y-69557D01*
X73450Y-69557D01*
X73450Y-69550D01*
X73442Y-69550D01*
X73442Y-69450D01*
X73450Y-69450D01*
X73450Y-69442D01*
X73550Y-69442D01*
X73550Y-69450D01*
X74204Y-69450D01*
X74253Y-69371D01*
X74250Y-69351D01*
X74155Y-69174D01*
X74001Y-69047D01*
X73867Y-69007D01*
X73970Y-68987D01*
X74135Y-68876D01*
X74246Y-68711D01*
X74285Y-68516D01*
X74246Y-68320D01*
X74135Y-68155D01*
X73970Y-68044D01*
X73800Y-68010D01*
X73800Y-68000D01*
X73777Y-67885D01*
X73712Y-67787D01*
X73712Y-67787D01*
X71441Y-65516D01*
X71343Y-65451D01*
X71297Y-65442D01*
X71297Y-65442D01*
X71279Y-65400D01*
X71214Y-65335D01*
X71279Y-65269D01*
X71367Y-65056D01*
X71368Y-64826D01*
X71279Y-64612D01*
X71214Y-64547D01*
X71279Y-64482D01*
X71367Y-64269D01*
X71368Y-64039D01*
X71279Y-63825D01*
X71116Y-63662D01*
X70903Y-63574D01*
X70673Y-63573D01*
X70459Y-63662D01*
X70296Y-63825D01*
X70284Y-63854D01*
X70278Y-63854D01*
X70212Y-63787D01*
X70114Y-63722D01*
X70000Y-63700D01*
X69613Y-63700D01*
X69549Y-63604D01*
X69394Y-63500D01*
X69549Y-63395D01*
X69613Y-63300D01*
X72000Y-63300D01*
X72000Y-63299D01*
X72114Y-63277D01*
X72114Y-63277D01*
X72212Y-63212D01*
X73124Y-62300D01*
X74496Y-62300D01*
X74508Y-62328D01*
X74671Y-62491D01*
X74884Y-62579D01*
X75114Y-62580D01*
X75328Y-62491D01*
X75491Y-62328D01*
X75499Y-62308D01*
X75508Y-62328D01*
X75671Y-62491D01*
X75884Y-62579D01*
X76114Y-62580D01*
X76328Y-62491D01*
X76491Y-62328D01*
X76579Y-62115D01*
X76580Y-61885D01*
X76491Y-61671D01*
X76328Y-61508D01*
X76299Y-61496D01*
X76277Y-61385D01*
X76212Y-61287D01*
X76212Y-61287D01*
X75712Y-60787D01*
X75614Y-60722D01*
X75500Y-60700D01*
X72624Y-60700D01*
X72300Y-60375D01*
X72300Y-59000D01*
X72277Y-58885D01*
X72212Y-58787D01*
X72114Y-58722D01*
X72000Y-58700D01*
X71471Y-58700D01*
X71466Y-58688D01*
X71311Y-58534D01*
X71109Y-58450D01*
X70891Y-58449D01*
X70688Y-58533D01*
X70534Y-58688D01*
X70450Y-58890D01*
X70449Y-59108D01*
X70533Y-59311D01*
X70688Y-59465D01*
X70769Y-59499D01*
X70688Y-59533D01*
X70534Y-59688D01*
X70450Y-59890D01*
X70449Y-60108D01*
X70533Y-60311D01*
X70688Y-60465D01*
X70700Y-60470D01*
X70700Y-60500D01*
X70722Y-60614D01*
X70787Y-60712D01*
X71200Y-61124D01*
X71200Y-61496D01*
X71171Y-61508D01*
X71008Y-61671D01*
X71000Y-61691D01*
X70991Y-61671D01*
X70828Y-61508D01*
X70615Y-61420D01*
X70385Y-61419D01*
X70171Y-61508D01*
X70008Y-61671D01*
X69996Y-61700D01*
X69613Y-61700D01*
X69549Y-61604D01*
X69394Y-61500D01*
X69549Y-61395D01*
X69671Y-61214D01*
X69713Y-61000D01*
X69671Y-60785D01*
X69549Y-60604D01*
X69394Y-60500D01*
X69549Y-60395D01*
X69671Y-60214D01*
X69713Y-60000D01*
X69671Y-59785D01*
X69549Y-59604D01*
X69394Y-59500D01*
X69549Y-59395D01*
X69671Y-59214D01*
X69713Y-59000D01*
X69671Y-58785D01*
X69549Y-58604D01*
X69368Y-58482D01*
X69153Y-58440D01*
X68846Y-58440D01*
X68631Y-58482D01*
X68450Y-58604D01*
X68328Y-58785D01*
X68286Y-59000D01*
X68328Y-59214D01*
X68450Y-59395D01*
X68605Y-59500D01*
X68450Y-59604D01*
X68328Y-59785D01*
X68286Y-60000D01*
X68328Y-60214D01*
X68450Y-60395D01*
X68605Y-60500D01*
X68450Y-60604D01*
X68328Y-60785D01*
X68286Y-61000D01*
X68328Y-61214D01*
X68450Y-61395D01*
X68605Y-61500D01*
X68450Y-61604D01*
X68328Y-61785D01*
X68286Y-62000D01*
X68328Y-62214D01*
X68450Y-62395D01*
X68605Y-62500D01*
X68450Y-62604D01*
X68328Y-62785D01*
X68286Y-63000D01*
X68328Y-63214D01*
X68450Y-63395D01*
X68605Y-63500D01*
X68450Y-63604D01*
X68328Y-63785D01*
X68286Y-64000D01*
X68328Y-64214D01*
X68450Y-64395D01*
X68605Y-64500D01*
X68450Y-64604D01*
X68328Y-64785D01*
X68286Y-65000D01*
X68328Y-65214D01*
X68450Y-65395D01*
X68605Y-65500D01*
X68450Y-65604D01*
X68328Y-65785D01*
X68286Y-66000D01*
X68328Y-66214D01*
X68450Y-66395D01*
X68605Y-66500D01*
X68450Y-66604D01*
X68328Y-66785D01*
X68286Y-67000D01*
X68328Y-67214D01*
X68450Y-67395D01*
X68605Y-67500D01*
X68450Y-67604D01*
X68328Y-67785D01*
X68286Y-68000D01*
X68328Y-68214D01*
X68450Y-68395D01*
X68605Y-68500D01*
X68450Y-68604D01*
X68328Y-68785D01*
X68286Y-69000D01*
X68328Y-69214D01*
X68450Y-69395D01*
X68605Y-69499D01*
X68599Y-69501D01*
X68428Y-69639D01*
X68323Y-69831D01*
X68316Y-69863D01*
X68365Y-69950D01*
X68950Y-69950D01*
X68950Y-69942D01*
X69050Y-69942D01*
X69050Y-69950D01*
X69634Y-69950D01*
X69683Y-69863D01*
X69676Y-69831D01*
X69571Y-69639D01*
X69400Y-69501D01*
X69394Y-69499D01*
X69549Y-69395D01*
X69671Y-69214D01*
X69713Y-69000D01*
X69671Y-68785D01*
X69549Y-68604D01*
X69394Y-68500D01*
X69549Y-68395D01*
X69671Y-68214D01*
X69690Y-68115D01*
X69700Y-68124D01*
X69700Y-68500D01*
X69722Y-68614D01*
X69787Y-68712D01*
X69931Y-68856D01*
X69920Y-68884D01*
X69919Y-69114D01*
X70008Y-69328D01*
X70171Y-69491D01*
X70384Y-69579D01*
X70614Y-69580D01*
X70828Y-69491D01*
X70991Y-69328D01*
X70999Y-69308D01*
X71008Y-69328D01*
X71171Y-69491D01*
X71200Y-69503D01*
X71200Y-69875D01*
X70287Y-70787D01*
X70222Y-70885D01*
X70200Y-71000D01*
X70200Y-72500D01*
X70222Y-72614D01*
X70287Y-72712D01*
X70385Y-72777D01*
X70500Y-72800D01*
X71028Y-72800D01*
X71033Y-72811D01*
X71188Y-72965D01*
X71390Y-73049D01*
X71608Y-73050D01*
X71811Y-72966D01*
X71965Y-72811D01*
X72049Y-72609D01*
X72050Y-72391D01*
X71966Y-72188D01*
X71811Y-72034D01*
X71730Y-72000D01*
X71811Y-71966D01*
X71965Y-71811D01*
X71970Y-71800D01*
X74000Y-71800D01*
X74000Y-71799D01*
X74114Y-71777D01*
X74114Y-71777D01*
X74212Y-71712D01*
X76212Y-69712D01*
X76212Y-69712D01*
X76277Y-69614D01*
X76299Y-69503D01*
X76328Y-69491D01*
X76491Y-69328D01*
X76579Y-69115D01*
X76580Y-68885D01*
X76580Y-69995D01*
X75621Y-70954D01*
X75609Y-70950D01*
X75391Y-70949D01*
X75188Y-71033D01*
X75034Y-71188D01*
X74950Y-71390D01*
X74949Y-71608D01*
X75033Y-71811D01*
X75188Y-71965D01*
X75200Y-71970D01*
X75200Y-72028D01*
X75188Y-72033D01*
X75034Y-72188D01*
X74950Y-72390D01*
X74949Y-72608D01*
X75033Y-72811D01*
X75188Y-72965D01*
X75390Y-73049D01*
X75608Y-73050D01*
X75811Y-72966D01*
X75965Y-72811D01*
X76049Y-72609D01*
X76050Y-72391D01*
X75966Y-72188D01*
X75811Y-72034D01*
X75800Y-72029D01*
X75800Y-71971D01*
X75811Y-71966D01*
X75965Y-71811D01*
X76049Y-71609D01*
X76050Y-71391D01*
X76045Y-71379D01*
X77712Y-69712D01*
X77712Y-69712D01*
X77777Y-69614D01*
X77799Y-69500D01*
X77800Y-69500D01*
X77800Y-69025D01*
X77824Y-69025D01*
X77916Y-68987D01*
X77986Y-68916D01*
X78024Y-68824D01*
X78025Y-68725D01*
X78025Y-68175D01*
X77987Y-68083D01*
X77916Y-68013D01*
X77824Y-67975D01*
X77737Y-67974D01*
X77772Y-67960D01*
X77797Y-67867D01*
X77500Y-67570D01*
X77494Y-67576D01*
X77423Y-67505D01*
X77429Y-67500D01*
X77132Y-67202D01*
X77039Y-67227D01*
X76970Y-67424D01*
X76977Y-67552D01*
X76712Y-67287D01*
X76614Y-67222D01*
X76500Y-67200D01*
X76460Y-67200D01*
X76524Y-67187D01*
X76524Y-67187D01*
X76622Y-67122D01*
X77219Y-66524D01*
X77274Y-66525D01*
X77824Y-66525D01*
X77916Y-66487D01*
X77986Y-66416D01*
X78024Y-66324D01*
X78025Y-66225D01*
X78025Y-65675D01*
X77987Y-65583D01*
X77916Y-65513D01*
X77824Y-65475D01*
X77737Y-65474D01*
X77772Y-65460D01*
X77797Y-65367D01*
X77500Y-65070D01*
X77429Y-65141D01*
X77429Y-65000D01*
X77132Y-64702D01*
X77039Y-64727D01*
X76970Y-64924D01*
X76981Y-65132D01*
X77039Y-65272D01*
X77132Y-65297D01*
X77429Y-65000D01*
X77429Y-65141D01*
X77202Y-65367D01*
X77227Y-65460D01*
X77268Y-65474D01*
X77175Y-65474D01*
X77083Y-65512D01*
X77013Y-65583D01*
X76975Y-65675D01*
X76974Y-65774D01*
X76974Y-65920D01*
X76285Y-66610D01*
X76253Y-66610D01*
X76172Y-66610D01*
X76160Y-66581D01*
X76095Y-66516D01*
X76160Y-66451D01*
X76248Y-66238D01*
X76249Y-66008D01*
X76160Y-65794D01*
X76102Y-65736D01*
X76121Y-65717D01*
X76076Y-65671D01*
X76175Y-65640D01*
X76253Y-65423D01*
X76249Y-65324D01*
X76243Y-65193D01*
X76175Y-65029D01*
X76076Y-64998D01*
X76121Y-64952D01*
X76103Y-64934D01*
X76160Y-64876D01*
X76248Y-64663D01*
X76249Y-64433D01*
X76160Y-64219D01*
X75997Y-64056D01*
X75784Y-63968D01*
X75554Y-63967D01*
X75340Y-64056D01*
X75177Y-64219D01*
X75089Y-64432D01*
X75088Y-64662D01*
X75177Y-64876D01*
X75234Y-64934D01*
X75216Y-64952D01*
X75261Y-64998D01*
X75162Y-65029D01*
X75084Y-65246D01*
X75094Y-65476D01*
X75162Y-65640D01*
X75261Y-65671D01*
X75216Y-65717D01*
X75235Y-65736D01*
X75177Y-65794D01*
X75165Y-65823D01*
X74800Y-65823D01*
X74800Y-63800D01*
X76000Y-63800D01*
X76000Y-63799D01*
X76114Y-63777D01*
X76114Y-63777D01*
X76212Y-63712D01*
X77124Y-62800D01*
X77500Y-62800D01*
X77614Y-62777D01*
X77712Y-62712D01*
X77777Y-62614D01*
X77800Y-62500D01*
X77800Y-61942D01*
X77944Y-61797D01*
X78024Y-61604D01*
X78025Y-61396D01*
X77945Y-61203D01*
X77797Y-61055D01*
X77604Y-60975D01*
X77396Y-60974D01*
X77203Y-61054D01*
X77090Y-61166D01*
X75712Y-59787D01*
X75614Y-59722D01*
X75500Y-59700D01*
X75471Y-59700D01*
X75466Y-59688D01*
X75311Y-59534D01*
X75300Y-59529D01*
X75300Y-59471D01*
X75311Y-59466D01*
X75465Y-59311D01*
X75549Y-59109D01*
X75550Y-58891D01*
X75466Y-58688D01*
X75311Y-58534D01*
X75300Y-58529D01*
X75300Y-58000D01*
X75277Y-57885D01*
X75212Y-57787D01*
X75114Y-57722D01*
X75000Y-57700D01*
X67500Y-57700D01*
X67385Y-57722D01*
X67287Y-57787D01*
X67222Y-57885D01*
X67200Y-58000D01*
X67200Y-68200D01*
X66050Y-68200D01*
X66050Y-58792D01*
X65890Y-58406D01*
X65595Y-58110D01*
X65209Y-57950D01*
X64792Y-57949D01*
X64406Y-58109D01*
X64110Y-58404D01*
X63950Y-58790D01*
X63949Y-59207D01*
X64109Y-59594D01*
X64404Y-59889D01*
X64790Y-60049D01*
X65207Y-60050D01*
X65594Y-59890D01*
X65889Y-59595D01*
X66049Y-59209D01*
X66050Y-58792D01*
X66050Y-68200D01*
X65000Y-68200D01*
X64885Y-68222D01*
X64787Y-68287D01*
X63502Y-69572D01*
X63394Y-69500D01*
X63549Y-69395D01*
X63671Y-69214D01*
X63713Y-69000D01*
X63671Y-68785D01*
X63549Y-68604D01*
X63394Y-68500D01*
X63549Y-68395D01*
X63671Y-68214D01*
X63713Y-68000D01*
X63671Y-67785D01*
X63549Y-67604D01*
X63394Y-67500D01*
X63549Y-67395D01*
X63671Y-67214D01*
X63713Y-67000D01*
X63671Y-66785D01*
X63549Y-66604D01*
X63394Y-66500D01*
X63549Y-66395D01*
X63671Y-66214D01*
X63713Y-66000D01*
X63671Y-65785D01*
X63549Y-65604D01*
X63394Y-65500D01*
X63549Y-65395D01*
X63671Y-65214D01*
X63713Y-65000D01*
X63671Y-64785D01*
X63549Y-64604D01*
X63394Y-64500D01*
X63549Y-64395D01*
X63671Y-64214D01*
X63713Y-64000D01*
X63671Y-63785D01*
X63549Y-63604D01*
X63394Y-63500D01*
X63549Y-63395D01*
X63671Y-63214D01*
X63713Y-63000D01*
X63671Y-62785D01*
X63549Y-62604D01*
X63394Y-62500D01*
X63549Y-62395D01*
X63671Y-62214D01*
X63713Y-62000D01*
X63671Y-61785D01*
X63549Y-61604D01*
X63394Y-61500D01*
X63549Y-61395D01*
X63671Y-61214D01*
X63713Y-61000D01*
X63671Y-60785D01*
X63549Y-60604D01*
X63394Y-60500D01*
X63549Y-60395D01*
X63671Y-60214D01*
X63713Y-60000D01*
X63671Y-59785D01*
X63549Y-59604D01*
X63483Y-59560D01*
X63499Y-59560D01*
X63591Y-59522D01*
X63661Y-59451D01*
X63699Y-59359D01*
X63700Y-59260D01*
X63700Y-58640D01*
X63662Y-58548D01*
X63591Y-58478D01*
X63499Y-58440D01*
X63400Y-58439D01*
X62550Y-58439D01*
X62550Y-57550D01*
X78950Y-57550D01*
X78950Y-74450D01*
X78950Y-74450D01*
G37*
G54D20*
X78950Y-74450D02*
X78537Y-74450D01*
X78537Y-72794D01*
X78537Y-58794D01*
X78379Y-58413D01*
X78088Y-58121D01*
X77707Y-57962D01*
X77294Y-57962D01*
X76913Y-58120D01*
X76621Y-58411D01*
X76462Y-58792D01*
X76462Y-59205D01*
X76620Y-59586D01*
X76911Y-59878D01*
X77292Y-60037D01*
X77705Y-60037D01*
X78086Y-59879D01*
X78378Y-59588D01*
X78537Y-59207D01*
X78537Y-58794D01*
X78537Y-72794D01*
X78379Y-72413D01*
X78088Y-72121D01*
X78029Y-72096D01*
X78029Y-67575D01*
X78029Y-65075D01*
X78029Y-63575D01*
X78018Y-63367D01*
X77960Y-63227D01*
X77867Y-63202D01*
X77797Y-63273D01*
X77797Y-63132D01*
X77772Y-63039D01*
X77575Y-62970D01*
X77367Y-62981D01*
X77227Y-63039D01*
X77202Y-63132D01*
X77500Y-63429D01*
X77797Y-63132D01*
X77797Y-63273D01*
X77570Y-63500D01*
X77867Y-63797D01*
X77960Y-63772D01*
X78029Y-63575D01*
X78029Y-65075D01*
X78018Y-64867D01*
X77960Y-64727D01*
X77867Y-64702D01*
X77797Y-64773D01*
X77797Y-64632D01*
X77797Y-63867D01*
X77500Y-63570D01*
X77429Y-63641D01*
X77429Y-63500D01*
X77132Y-63202D01*
X77039Y-63227D01*
X76970Y-63424D01*
X76981Y-63632D01*
X77039Y-63772D01*
X77132Y-63797D01*
X77429Y-63500D01*
X77429Y-63641D01*
X77202Y-63867D01*
X77227Y-63960D01*
X77424Y-64029D01*
X77632Y-64018D01*
X77772Y-63960D01*
X77797Y-63867D01*
X77797Y-64632D01*
X77772Y-64539D01*
X77575Y-64470D01*
X77367Y-64481D01*
X77227Y-64539D01*
X77202Y-64632D01*
X77500Y-64929D01*
X77797Y-64632D01*
X77797Y-64773D01*
X77570Y-65000D01*
X77867Y-65297D01*
X77960Y-65272D01*
X78029Y-65075D01*
X78029Y-67575D01*
X78018Y-67367D01*
X77960Y-67227D01*
X77867Y-67202D01*
X77797Y-67273D01*
X77797Y-67132D01*
X77772Y-67039D01*
X77575Y-66970D01*
X77367Y-66981D01*
X77227Y-67039D01*
X77202Y-67132D01*
X77500Y-67429D01*
X77797Y-67132D01*
X77797Y-67273D01*
X77570Y-67500D01*
X77867Y-67797D01*
X77960Y-67772D01*
X78029Y-67575D01*
X78029Y-72096D01*
X77707Y-71962D01*
X77294Y-71962D01*
X76913Y-72120D01*
X76621Y-72411D01*
X76462Y-72792D01*
X76462Y-73205D01*
X76620Y-73586D01*
X76911Y-73878D01*
X77292Y-74037D01*
X77705Y-74037D01*
X78086Y-73879D01*
X78378Y-73588D01*
X78537Y-73207D01*
X78537Y-72794D01*
X78537Y-74450D01*
X69713Y-74450D01*
X69713Y-73000D01*
X69671Y-72785D01*
X69549Y-72604D01*
X69394Y-72500D01*
X69549Y-72395D01*
X69671Y-72214D01*
X69713Y-72000D01*
X69671Y-71785D01*
X69549Y-71604D01*
X69394Y-71500D01*
X69549Y-71395D01*
X69671Y-71214D01*
X69713Y-71000D01*
X69671Y-70785D01*
X69549Y-70604D01*
X69394Y-70500D01*
X69400Y-70498D01*
X69571Y-70360D01*
X69676Y-70168D01*
X69683Y-70136D01*
X69634Y-70050D01*
X69050Y-70050D01*
X69050Y-70057D01*
X68950Y-70057D01*
X68950Y-70050D01*
X68365Y-70050D01*
X68316Y-70136D01*
X68323Y-70168D01*
X68428Y-70360D01*
X68599Y-70498D01*
X68605Y-70500D01*
X68450Y-70604D01*
X68328Y-70785D01*
X68286Y-71000D01*
X68328Y-71214D01*
X68450Y-71395D01*
X68605Y-71500D01*
X68450Y-71604D01*
X68328Y-71785D01*
X68286Y-72000D01*
X68328Y-72214D01*
X68450Y-72395D01*
X68605Y-72500D01*
X68450Y-72604D01*
X68328Y-72785D01*
X68286Y-73000D01*
X68328Y-73214D01*
X68450Y-73395D01*
X68631Y-73517D01*
X68846Y-73560D01*
X69153Y-73560D01*
X69368Y-73517D01*
X69549Y-73395D01*
X69671Y-73214D01*
X69713Y-73000D01*
X69713Y-74450D01*
X66050Y-74450D01*
X66050Y-72792D01*
X65890Y-72406D01*
X65595Y-72110D01*
X65209Y-71950D01*
X64792Y-71949D01*
X64406Y-72109D01*
X64110Y-72404D01*
X63950Y-72790D01*
X63949Y-73207D01*
X64109Y-73594D01*
X64404Y-73889D01*
X64790Y-74049D01*
X65207Y-74050D01*
X65594Y-73890D01*
X65889Y-73595D01*
X66049Y-73209D01*
X66050Y-72792D01*
X66050Y-74450D01*
X62550Y-74450D01*
X62550Y-73462D01*
X62631Y-73517D01*
X62846Y-73560D01*
X63153Y-73560D01*
X63368Y-73517D01*
X63549Y-73395D01*
X63671Y-73214D01*
X63713Y-73000D01*
X63671Y-72785D01*
X63549Y-72604D01*
X63394Y-72500D01*
X63400Y-72498D01*
X63571Y-72360D01*
X63676Y-72168D01*
X63683Y-72136D01*
X63634Y-72050D01*
X63050Y-72050D01*
X63050Y-72057D01*
X62950Y-72057D01*
X62950Y-72050D01*
X62942Y-72050D01*
X62942Y-71950D01*
X62950Y-71950D01*
X62950Y-71942D01*
X63050Y-71942D01*
X63050Y-71950D01*
X63634Y-71950D01*
X63683Y-71863D01*
X63676Y-71831D01*
X63571Y-71639D01*
X63400Y-71501D01*
X63394Y-71499D01*
X63549Y-71395D01*
X63671Y-71214D01*
X63713Y-71000D01*
X63671Y-70785D01*
X63549Y-70604D01*
X63394Y-70500D01*
X63549Y-70395D01*
X63640Y-70259D01*
X63640Y-70259D01*
X63712Y-70212D01*
X65124Y-68800D01*
X67500Y-68800D01*
X67614Y-68777D01*
X67712Y-68712D01*
X67777Y-68614D01*
X67800Y-68500D01*
X67800Y-58300D01*
X74700Y-58300D01*
X74700Y-58528D01*
X74688Y-58533D01*
X74534Y-58688D01*
X74450Y-58890D01*
X74449Y-59108D01*
X74533Y-59311D01*
X74688Y-59465D01*
X74700Y-59470D01*
X74700Y-59528D01*
X74688Y-59533D01*
X74534Y-59688D01*
X74450Y-59890D01*
X74449Y-60108D01*
X74533Y-60311D01*
X74688Y-60465D01*
X74890Y-60549D01*
X75108Y-60550D01*
X75311Y-60466D01*
X75426Y-60351D01*
X76787Y-61712D01*
X76787Y-61712D01*
X76885Y-61777D01*
X77000Y-61800D01*
X77057Y-61800D01*
X77200Y-61942D01*
X77200Y-62200D01*
X77000Y-62200D01*
X76885Y-62222D01*
X76787Y-62287D01*
X75875Y-63200D01*
X74500Y-63200D01*
X74385Y-63222D01*
X74287Y-63287D01*
X74222Y-63385D01*
X74200Y-63500D01*
X74200Y-66000D01*
X74200Y-67500D01*
X74222Y-67614D01*
X74287Y-67712D01*
X74385Y-67777D01*
X74500Y-67800D01*
X76375Y-67800D01*
X76787Y-68212D01*
X76787Y-68212D01*
X76787Y-68212D01*
X76974Y-68399D01*
X76974Y-68824D01*
X77012Y-68916D01*
X77083Y-68986D01*
X77175Y-69024D01*
X77200Y-69024D01*
X77200Y-69375D01*
X76580Y-69995D01*
X76580Y-68885D01*
X76491Y-68671D01*
X76328Y-68508D01*
X76115Y-68420D01*
X75885Y-68419D01*
X75671Y-68508D01*
X75508Y-68671D01*
X75500Y-68691D01*
X75491Y-68671D01*
X75328Y-68508D01*
X75115Y-68420D01*
X74885Y-68419D01*
X74671Y-68508D01*
X74508Y-68671D01*
X74420Y-68884D01*
X74419Y-69114D01*
X74508Y-69328D01*
X74671Y-69491D01*
X74700Y-69503D01*
X74700Y-69875D01*
X74253Y-70322D01*
X74246Y-70288D01*
X74135Y-70123D01*
X73970Y-70012D01*
X73867Y-69992D01*
X74001Y-69952D01*
X74155Y-69825D01*
X74250Y-69648D01*
X74253Y-69628D01*
X74204Y-69550D01*
X73550Y-69550D01*
X73550Y-69557D01*
X73450Y-69557D01*
X73450Y-69550D01*
X73442Y-69550D01*
X73442Y-69450D01*
X73450Y-69450D01*
X73450Y-69442D01*
X73550Y-69442D01*
X73550Y-69450D01*
X74204Y-69450D01*
X74253Y-69371D01*
X74250Y-69351D01*
X74155Y-69174D01*
X74001Y-69047D01*
X73867Y-69007D01*
X73970Y-68987D01*
X74135Y-68876D01*
X74246Y-68711D01*
X74285Y-68516D01*
X74246Y-68320D01*
X74135Y-68155D01*
X73970Y-68044D01*
X73800Y-68010D01*
X73800Y-68000D01*
X73777Y-67885D01*
X73712Y-67787D01*
X73712Y-67787D01*
X71441Y-65516D01*
X71343Y-65451D01*
X71297Y-65442D01*
X71297Y-65442D01*
X71279Y-65400D01*
X71214Y-65335D01*
X71279Y-65269D01*
X71367Y-65056D01*
X71368Y-64826D01*
X71279Y-64612D01*
X71214Y-64547D01*
X71279Y-64482D01*
X71367Y-64269D01*
X71368Y-64039D01*
X71279Y-63825D01*
X71116Y-63662D01*
X70903Y-63574D01*
X70673Y-63573D01*
X70459Y-63662D01*
X70296Y-63825D01*
X70284Y-63854D01*
X70278Y-63854D01*
X70212Y-63787D01*
X70114Y-63722D01*
X70000Y-63700D01*
X69613Y-63700D01*
X69549Y-63604D01*
X69394Y-63500D01*
X69549Y-63395D01*
X69613Y-63300D01*
X72000Y-63300D01*
X72000Y-63299D01*
X72114Y-63277D01*
X72114Y-63277D01*
X72212Y-63212D01*
X73124Y-62300D01*
X74496Y-62300D01*
X74508Y-62328D01*
X74671Y-62491D01*
X74884Y-62579D01*
X75114Y-62580D01*
X75328Y-62491D01*
X75491Y-62328D01*
X75499Y-62308D01*
X75508Y-62328D01*
X75671Y-62491D01*
X75884Y-62579D01*
X76114Y-62580D01*
X76328Y-62491D01*
X76491Y-62328D01*
X76579Y-62115D01*
X76580Y-61885D01*
X76491Y-61671D01*
X76328Y-61508D01*
X76299Y-61496D01*
X76277Y-61385D01*
X76212Y-61287D01*
X76212Y-61287D01*
X75712Y-60787D01*
X75614Y-60722D01*
X75500Y-60700D01*
X72624Y-60700D01*
X72300Y-60375D01*
X72300Y-59000D01*
X72277Y-58885D01*
X72212Y-58787D01*
X72114Y-58722D01*
X72000Y-58700D01*
X71471Y-58700D01*
X71466Y-58688D01*
X71311Y-58534D01*
X71109Y-58450D01*
X70891Y-58449D01*
X70688Y-58533D01*
X70534Y-58688D01*
X70450Y-58890D01*
X70449Y-59108D01*
X70533Y-59311D01*
X70688Y-59465D01*
X70769Y-59499D01*
X70688Y-59533D01*
X70534Y-59688D01*
X70450Y-59890D01*
X70449Y-60108D01*
X70533Y-60311D01*
X70688Y-60465D01*
X70700Y-60470D01*
X70700Y-60500D01*
X70722Y-60614D01*
X70787Y-60712D01*
X71200Y-61124D01*
X71200Y-61496D01*
X71171Y-61508D01*
X71008Y-61671D01*
X71000Y-61691D01*
X70991Y-61671D01*
X70828Y-61508D01*
X70615Y-61420D01*
X70385Y-61419D01*
X70171Y-61508D01*
X70008Y-61671D01*
X69996Y-61700D01*
X69613Y-61700D01*
X69549Y-61604D01*
X69394Y-61500D01*
X69549Y-61395D01*
X69671Y-61214D01*
X69713Y-61000D01*
X69671Y-60785D01*
X69549Y-60604D01*
X69394Y-60500D01*
X69549Y-60395D01*
X69671Y-60214D01*
X69713Y-60000D01*
X69671Y-59785D01*
X69549Y-59604D01*
X69394Y-59500D01*
X69549Y-59395D01*
X69671Y-59214D01*
X69713Y-59000D01*
X69671Y-58785D01*
X69549Y-58604D01*
X69368Y-58482D01*
X69153Y-58440D01*
X68846Y-58440D01*
X68631Y-58482D01*
X68450Y-58604D01*
X68328Y-58785D01*
X68286Y-59000D01*
X68328Y-59214D01*
X68450Y-59395D01*
X68605Y-59500D01*
X68450Y-59604D01*
X68328Y-59785D01*
X68286Y-60000D01*
X68328Y-60214D01*
X68450Y-60395D01*
X68605Y-60500D01*
X68450Y-60604D01*
X68328Y-60785D01*
X68286Y-61000D01*
X68328Y-61214D01*
X68450Y-61395D01*
X68605Y-61500D01*
X68450Y-61604D01*
X68328Y-61785D01*
X68286Y-62000D01*
X68328Y-62214D01*
X68450Y-62395D01*
X68605Y-62500D01*
X68450Y-62604D01*
X68328Y-62785D01*
X68286Y-63000D01*
X68328Y-63214D01*
X68450Y-63395D01*
X68605Y-63500D01*
X68450Y-63604D01*
X68328Y-63785D01*
X68286Y-64000D01*
X68328Y-64214D01*
X68450Y-64395D01*
X68605Y-64500D01*
X68450Y-64604D01*
X68328Y-64785D01*
X68286Y-65000D01*
X68328Y-65214D01*
X68450Y-65395D01*
X68605Y-65500D01*
X68450Y-65604D01*
X68328Y-65785D01*
X68286Y-66000D01*
X68328Y-66214D01*
X68450Y-66395D01*
X68605Y-66500D01*
X68450Y-66604D01*
X68328Y-66785D01*
X68286Y-67000D01*
X68328Y-67214D01*
X68450Y-67395D01*
X68605Y-67500D01*
X68450Y-67604D01*
X68328Y-67785D01*
X68286Y-68000D01*
X68328Y-68214D01*
X68450Y-68395D01*
X68605Y-68500D01*
X68450Y-68604D01*
X68328Y-68785D01*
X68286Y-69000D01*
X68328Y-69214D01*
X68450Y-69395D01*
X68605Y-69499D01*
X68599Y-69501D01*
X68428Y-69639D01*
X68323Y-69831D01*
X68316Y-69863D01*
X68365Y-69950D01*
X68950Y-69950D01*
X68950Y-69942D01*
X69050Y-69942D01*
X69050Y-69950D01*
X69634Y-69950D01*
X69683Y-69863D01*
X69676Y-69831D01*
X69571Y-69639D01*
X69400Y-69501D01*
X69394Y-69499D01*
X69549Y-69395D01*
X69671Y-69214D01*
X69713Y-69000D01*
X69671Y-68785D01*
X69549Y-68604D01*
X69394Y-68500D01*
X69549Y-68395D01*
X69671Y-68214D01*
X69690Y-68115D01*
X69700Y-68124D01*
X69700Y-68500D01*
X69722Y-68614D01*
X69787Y-68712D01*
X69931Y-68856D01*
X69920Y-68884D01*
X69919Y-69114D01*
X70008Y-69328D01*
X70171Y-69491D01*
X70384Y-69579D01*
X70614Y-69580D01*
X70828Y-69491D01*
X70991Y-69328D01*
X70999Y-69308D01*
X71008Y-69328D01*
X71171Y-69491D01*
X71200Y-69503D01*
X71200Y-69875D01*
X70287Y-70787D01*
X70222Y-70885D01*
X70200Y-71000D01*
X70200Y-72500D01*
X70222Y-72614D01*
X70287Y-72712D01*
X70385Y-72777D01*
X70500Y-72800D01*
X71028Y-72800D01*
X71033Y-72811D01*
X71188Y-72965D01*
X71390Y-73049D01*
X71608Y-73050D01*
X71811Y-72966D01*
X71965Y-72811D01*
X72049Y-72609D01*
X72050Y-72391D01*
X71966Y-72188D01*
X71811Y-72034D01*
X71730Y-72000D01*
X71811Y-71966D01*
X71965Y-71811D01*
X71970Y-71800D01*
X74000Y-71800D01*
X74000Y-71799D01*
X74114Y-71777D01*
X74114Y-71777D01*
X74212Y-71712D01*
X76212Y-69712D01*
X76212Y-69712D01*
X76277Y-69614D01*
X76299Y-69503D01*
X76328Y-69491D01*
X76491Y-69328D01*
X76579Y-69115D01*
X76580Y-68885D01*
X76580Y-69995D01*
X75621Y-70954D01*
X75609Y-70950D01*
X75391Y-70949D01*
X75188Y-71033D01*
X75034Y-71188D01*
X74950Y-71390D01*
X74949Y-71608D01*
X75033Y-71811D01*
X75188Y-71965D01*
X75200Y-71970D01*
X75200Y-72028D01*
X75188Y-72033D01*
X75034Y-72188D01*
X74950Y-72390D01*
X74949Y-72608D01*
X75033Y-72811D01*
X75188Y-72965D01*
X75390Y-73049D01*
X75608Y-73050D01*
X75811Y-72966D01*
X75965Y-72811D01*
X76049Y-72609D01*
X76050Y-72391D01*
X75966Y-72188D01*
X75811Y-72034D01*
X75800Y-72029D01*
X75800Y-71971D01*
X75811Y-71966D01*
X75965Y-71811D01*
X76049Y-71609D01*
X76050Y-71391D01*
X76045Y-71379D01*
X77712Y-69712D01*
X77712Y-69712D01*
X77777Y-69614D01*
X77799Y-69500D01*
X77800Y-69500D01*
X77800Y-69025D01*
X77824Y-69025D01*
X77916Y-68987D01*
X77986Y-68916D01*
X78024Y-68824D01*
X78025Y-68725D01*
X78025Y-68175D01*
X77987Y-68083D01*
X77916Y-68013D01*
X77824Y-67975D01*
X77737Y-67974D01*
X77772Y-67960D01*
X77797Y-67867D01*
X77500Y-67570D01*
X77494Y-67576D01*
X77423Y-67505D01*
X77429Y-67500D01*
X77132Y-67202D01*
X77039Y-67227D01*
X76970Y-67424D01*
X76977Y-67552D01*
X76712Y-67287D01*
X76614Y-67222D01*
X76500Y-67200D01*
X76460Y-67200D01*
X76524Y-67187D01*
X76524Y-67187D01*
X76622Y-67122D01*
X77219Y-66524D01*
X77274Y-66525D01*
X77824Y-66525D01*
X77916Y-66487D01*
X77986Y-66416D01*
X78024Y-66324D01*
X78025Y-66225D01*
X78025Y-65675D01*
X77987Y-65583D01*
X77916Y-65513D01*
X77824Y-65475D01*
X77737Y-65474D01*
X77772Y-65460D01*
X77797Y-65367D01*
X77500Y-65070D01*
X77429Y-65141D01*
X77429Y-65000D01*
X77132Y-64702D01*
X77039Y-64727D01*
X76970Y-64924D01*
X76981Y-65132D01*
X77039Y-65272D01*
X77132Y-65297D01*
X77429Y-65000D01*
X77429Y-65141D01*
X77202Y-65367D01*
X77227Y-65460D01*
X77268Y-65474D01*
X77175Y-65474D01*
X77083Y-65512D01*
X77013Y-65583D01*
X76975Y-65675D01*
X76974Y-65774D01*
X76974Y-65920D01*
X76285Y-66610D01*
X76253Y-66610D01*
X76172Y-66610D01*
X76160Y-66581D01*
X76095Y-66516D01*
X76160Y-66451D01*
X76248Y-66238D01*
X76249Y-66008D01*
X76160Y-65794D01*
X76102Y-65736D01*
X76121Y-65717D01*
X76076Y-65671D01*
X76175Y-65640D01*
X76253Y-65423D01*
X76249Y-65324D01*
X76243Y-65193D01*
X76175Y-65029D01*
X76076Y-64998D01*
X76121Y-64952D01*
X76103Y-64934D01*
X76160Y-64876D01*
X76248Y-64663D01*
X76249Y-64433D01*
X76160Y-64219D01*
X75997Y-64056D01*
X75784Y-63968D01*
X75554Y-63967D01*
X75340Y-64056D01*
X75177Y-64219D01*
X75089Y-64432D01*
X75088Y-64662D01*
X75177Y-64876D01*
X75234Y-64934D01*
X75216Y-64952D01*
X75261Y-64998D01*
X75162Y-65029D01*
X75084Y-65246D01*
X75094Y-65476D01*
X75162Y-65640D01*
X75261Y-65671D01*
X75216Y-65717D01*
X75235Y-65736D01*
X75177Y-65794D01*
X75165Y-65823D01*
X74800Y-65823D01*
X74800Y-63800D01*
X76000Y-63800D01*
X76000Y-63799D01*
X76114Y-63777D01*
X76114Y-63777D01*
X76212Y-63712D01*
X77124Y-62800D01*
X77500Y-62800D01*
X77614Y-62777D01*
X77712Y-62712D01*
X77777Y-62614D01*
X77800Y-62500D01*
X77800Y-61942D01*
X77944Y-61797D01*
X78024Y-61604D01*
X78025Y-61396D01*
X77945Y-61203D01*
X77797Y-61055D01*
X77604Y-60975D01*
X77396Y-60974D01*
X77203Y-61054D01*
X77090Y-61166D01*
X75712Y-59787D01*
X75614Y-59722D01*
X75500Y-59700D01*
X75471Y-59700D01*
X75466Y-59688D01*
X75311Y-59534D01*
X75300Y-59529D01*
X75300Y-59471D01*
X75311Y-59466D01*
X75465Y-59311D01*
X75549Y-59109D01*
X75550Y-58891D01*
X75466Y-58688D01*
X75311Y-58534D01*
X75300Y-58529D01*
X75300Y-58000D01*
X75277Y-57885D01*
X75212Y-57787D01*
X75114Y-57722D01*
X75000Y-57700D01*
X67500Y-57700D01*
X67385Y-57722D01*
X67287Y-57787D01*
X67222Y-57885D01*
X67200Y-58000D01*
X67200Y-68200D01*
X66050Y-68200D01*
X66050Y-58792D01*
X65890Y-58406D01*
X65595Y-58110D01*
X65209Y-57950D01*
X64792Y-57949D01*
X64406Y-58109D01*
X64110Y-58404D01*
X63950Y-58790D01*
X63949Y-59207D01*
X64109Y-59594D01*
X64404Y-59889D01*
X64790Y-60049D01*
X65207Y-60050D01*
X65594Y-59890D01*
X65889Y-59595D01*
X66049Y-59209D01*
X66050Y-58792D01*
X66050Y-68200D01*
X65000Y-68200D01*
X64885Y-68222D01*
X64787Y-68287D01*
X63502Y-69572D01*
X63394Y-69500D01*
X63549Y-69395D01*
X63671Y-69214D01*
X63713Y-69000D01*
X63671Y-68785D01*
X63549Y-68604D01*
X63394Y-68500D01*
X63549Y-68395D01*
X63671Y-68214D01*
X63713Y-68000D01*
X63671Y-67785D01*
X63549Y-67604D01*
X63394Y-67500D01*
X63549Y-67395D01*
X63671Y-67214D01*
X63713Y-67000D01*
X63671Y-66785D01*
X63549Y-66604D01*
X63394Y-66500D01*
X63549Y-66395D01*
X63671Y-66214D01*
X63713Y-66000D01*
X63671Y-65785D01*
X63549Y-65604D01*
X63394Y-65500D01*
X63549Y-65395D01*
X63671Y-65214D01*
X63713Y-65000D01*
X63671Y-64785D01*
X63549Y-64604D01*
X63394Y-64500D01*
X63549Y-64395D01*
X63671Y-64214D01*
X63713Y-64000D01*
X63671Y-63785D01*
X63549Y-63604D01*
X63394Y-63500D01*
X63549Y-63395D01*
X63671Y-63214D01*
X63713Y-63000D01*
X63671Y-62785D01*
X63549Y-62604D01*
X63394Y-62500D01*
X63549Y-62395D01*
X63671Y-62214D01*
X63713Y-62000D01*
X63671Y-61785D01*
X63549Y-61604D01*
X63394Y-61500D01*
X63549Y-61395D01*
X63671Y-61214D01*
X63713Y-61000D01*
X63671Y-60785D01*
X63549Y-60604D01*
X63394Y-60500D01*
X63549Y-60395D01*
X63671Y-60214D01*
X63713Y-60000D01*
X63671Y-59785D01*
X63549Y-59604D01*
X63483Y-59560D01*
X63499Y-59560D01*
X63591Y-59522D01*
X63661Y-59451D01*
X63699Y-59359D01*
X63700Y-59260D01*
X63700Y-58640D01*
X63662Y-58548D01*
X63591Y-58478D01*
X63499Y-58440D01*
X63400Y-58439D01*
X62550Y-58439D01*
X62550Y-57550D01*
X78950Y-57550D01*
X78950Y-74450D01*
M02*
