G04 (created by PCBNEW (2013-jul-07)-stable) date Sun 31 May 2015 11:01:27 BST*
%MOIN*%
G04 Gerber Fmt 3.4, Leading zero omitted, Abs format*
%FSLAX34Y34*%
G01*
G70*
G90*
G04 APERTURE LIST*
%ADD10C,0.00590551*%
%ADD11C,0.06*%
%ADD12C,0.066*%
%ADD13C,0.055*%
%ADD14R,0.055X0.055*%
%ADD15R,0.09X0.062*%
%ADD16O,0.09X0.062*%
%ADD17C,0.15748*%
%ADD18C,0.16*%
G04 APERTURE END LIST*
G54D10*
G54D11*
X75000Y-60000D03*
X71000Y-60000D03*
X75000Y-59000D03*
X71000Y-59000D03*
X75500Y-71500D03*
X71500Y-71500D03*
X75500Y-72500D03*
X71500Y-72500D03*
G54D12*
X71500Y-62000D03*
X70500Y-62000D03*
X76000Y-62000D03*
X75000Y-62000D03*
X76000Y-69000D03*
X75000Y-69000D03*
X71500Y-69000D03*
X70500Y-69000D03*
G54D13*
X77500Y-61500D03*
X77500Y-63500D03*
G54D14*
X77500Y-68500D03*
G54D13*
X77500Y-67500D03*
G54D14*
X77500Y-66000D03*
G54D13*
X77500Y-65000D03*
G54D15*
X63000Y-59000D03*
G54D16*
X63000Y-60000D03*
X63000Y-61000D03*
X63000Y-62000D03*
X63000Y-63000D03*
X63000Y-64000D03*
X63000Y-65000D03*
X63000Y-66000D03*
X63000Y-67000D03*
X63000Y-68000D03*
X63000Y-69000D03*
X63000Y-70000D03*
X63000Y-71000D03*
X63000Y-72000D03*
X63000Y-73000D03*
X69000Y-73000D03*
X69000Y-72000D03*
X69000Y-71000D03*
X69000Y-70000D03*
X69000Y-69000D03*
X69000Y-68000D03*
X69000Y-67000D03*
X69000Y-66000D03*
X69000Y-65000D03*
X69000Y-64000D03*
X69000Y-63000D03*
X69000Y-62000D03*
X69000Y-61000D03*
X69000Y-60000D03*
X69000Y-59000D03*
G54D17*
X77500Y-73000D03*
X77500Y-59000D03*
G54D18*
X65000Y-59000D03*
X65000Y-73000D03*
M02*
