M48
METRIC,TZ
T1C0.599
T2C0.813
T3C3.000
%
G90
G05
T1
X179802Y-162951
X179802Y-164950
X179802Y-166952
X179802Y-168951
X192199Y-163952
X192199Y-165951
X192199Y-167952
X192199Y-169951
T2
X160020Y-149860
X160020Y-152400
X160020Y-154940
X160020Y-157480
X160020Y-160020
X160020Y-162560
X160020Y-165100
X160020Y-167640
X160020Y-170180
X160020Y-172720
X160020Y-175260
X160020Y-177800
X160020Y-180340
X160020Y-182880
X160020Y-185420
X175260Y-149860
X175260Y-152400
X175260Y-154940
X175260Y-157480
X175260Y-160020
X175260Y-162560
X175260Y-165100
X175260Y-167640
X175260Y-170180
X175260Y-172720
X175260Y-175260
X175260Y-177800
X175260Y-180340
X175260Y-182880
X175260Y-185420
X179070Y-157480
X179070Y-175260
X180340Y-149860
X180340Y-152400
X181610Y-157480
X181610Y-175260
X181610Y-181610
X181610Y-184150
X186690Y-174031
X186690Y-176530
X186690Y-179029
X190500Y-149860
X190500Y-152400
X190500Y-157480
X190500Y-175260
X191770Y-181610
X191770Y-184150
X193040Y-157480
X193040Y-175260
X196850Y-156210
X196850Y-161290
X196850Y-165100
X196850Y-167640
X196850Y-171450
X196850Y-173990
T3
X165100Y-149860
X165100Y-185420
X196850Y-149860
X196850Y-185420
T0
M30
