G04 (created by PCBNEW (2013-jul-07)-stable) date Sun 31 May 2015 11:01:27 BST*
%MOIN*%
G04 Gerber Fmt 3.4, Leading zero omitted, Abs format*
%FSLAX34Y34*%
G01*
G70*
G90*
G04 APERTURE LIST*
%ADD10C,0.00590551*%
%ADD11C,0.005*%
%ADD12C,0.012*%
%ADD13C,0.008*%
%ADD14C,0.003*%
%ADD15C,0.01*%
%ADD16C,0.006*%
%ADD17C,0.015*%
%ADD18C,0.0026*%
%ADD19C,0.0025*%
%ADD20C,0.0035*%
%ADD21C,0.0075*%
G04 APERTURE END LIST*
G54D10*
G54D11*
X74051Y-69008D02*
X72949Y-69008D01*
X73894Y-70794D02*
G75*
G03X74090Y-69501I-3937J1256D01*
G74*
G01*
X73499Y-71074D02*
G75*
G03X73892Y-70799I3J413D01*
G74*
G01*
X74089Y-69490D02*
G75*
G03X73892Y-68198I-4132J28D01*
G74*
G01*
X72910Y-69509D02*
G75*
G03X73107Y-70801I4132J-28D01*
G74*
G01*
X73105Y-68205D02*
G75*
G03X72909Y-69498I3937J-1256D01*
G74*
G01*
X73107Y-70798D02*
G75*
G03X73499Y-71074I389J137D01*
G74*
G01*
X73892Y-68201D02*
G75*
G03X73500Y-67925I-389J-137D01*
G74*
G01*
X73500Y-67925D02*
G75*
G03X73107Y-68200I-3J-413D01*
G74*
G01*
G54D12*
X75000Y-60000D02*
X74600Y-60000D01*
X74600Y-60000D02*
X74600Y-60400D01*
X74600Y-60400D02*
X71400Y-60400D01*
X71400Y-60400D02*
X71400Y-59600D01*
X71400Y-59600D02*
X74600Y-59600D01*
X74600Y-59600D02*
X74600Y-60000D01*
X74600Y-60200D02*
X74400Y-60400D01*
X71000Y-60000D02*
X71400Y-60000D01*
X75000Y-59000D02*
X74600Y-59000D01*
X74600Y-59000D02*
X74600Y-59400D01*
X74600Y-59400D02*
X71400Y-59400D01*
X71400Y-59400D02*
X71400Y-58600D01*
X71400Y-58600D02*
X74600Y-58600D01*
X74600Y-58600D02*
X74600Y-59000D01*
X74600Y-59200D02*
X74400Y-59400D01*
X71000Y-59000D02*
X71400Y-59000D01*
X75500Y-71500D02*
X75100Y-71500D01*
X75100Y-71500D02*
X75100Y-71900D01*
X75100Y-71900D02*
X71900Y-71900D01*
X71900Y-71900D02*
X71900Y-71100D01*
X71900Y-71100D02*
X75100Y-71100D01*
X75100Y-71100D02*
X75100Y-71500D01*
X75100Y-71700D02*
X74900Y-71900D01*
X71500Y-71500D02*
X71900Y-71500D01*
X75500Y-72500D02*
X75100Y-72500D01*
X75100Y-72500D02*
X75100Y-72900D01*
X75100Y-72900D02*
X71900Y-72900D01*
X71900Y-72900D02*
X71900Y-72100D01*
X71900Y-72100D02*
X75100Y-72100D01*
X75100Y-72100D02*
X75100Y-72500D01*
X75100Y-72700D02*
X74900Y-72900D01*
X71500Y-72500D02*
X71900Y-72500D01*
G54D13*
X69880Y-61250D02*
X69880Y-62750D01*
G54D14*
X71607Y-62000D02*
G75*
G03X71607Y-62000I-707J0D01*
G74*
G01*
G54D15*
X69900Y-62750D02*
G75*
G03X69900Y-61249I999J750D01*
G74*
G01*
G54D16*
X70900Y-62450D02*
G75*
G03X71350Y-62000I0J450D01*
G74*
G01*
X70900Y-61550D02*
G75*
G03X70450Y-62000I0J-450D01*
G74*
G01*
X70900Y-62650D02*
G75*
G03X71550Y-62000I0J650D01*
G74*
G01*
X70900Y-61350D02*
G75*
G03X70250Y-62000I0J-650D01*
G74*
G01*
X70900Y-62850D02*
G75*
G03X71750Y-62000I0J850D01*
G74*
G01*
X70900Y-61150D02*
G75*
G03X70050Y-62000I0J-850D01*
G74*
G01*
G54D13*
X74380Y-61250D02*
X74380Y-62750D01*
G54D14*
X76107Y-62000D02*
G75*
G03X76107Y-62000I-707J0D01*
G74*
G01*
G54D15*
X74400Y-62750D02*
G75*
G03X74400Y-61249I999J750D01*
G74*
G01*
G54D16*
X75400Y-62450D02*
G75*
G03X75850Y-62000I0J450D01*
G74*
G01*
X75400Y-61550D02*
G75*
G03X74950Y-62000I0J-450D01*
G74*
G01*
X75400Y-62650D02*
G75*
G03X76050Y-62000I0J650D01*
G74*
G01*
X75400Y-61350D02*
G75*
G03X74750Y-62000I0J-650D01*
G74*
G01*
X75400Y-62850D02*
G75*
G03X76250Y-62000I0J850D01*
G74*
G01*
X75400Y-61150D02*
G75*
G03X74550Y-62000I0J-850D01*
G74*
G01*
G54D13*
X74380Y-68250D02*
X74380Y-69750D01*
G54D14*
X76107Y-69000D02*
G75*
G03X76107Y-69000I-707J0D01*
G74*
G01*
G54D15*
X74400Y-69750D02*
G75*
G03X74400Y-68249I999J750D01*
G74*
G01*
G54D16*
X75400Y-69450D02*
G75*
G03X75850Y-69000I0J450D01*
G74*
G01*
X75400Y-68550D02*
G75*
G03X74950Y-69000I0J-450D01*
G74*
G01*
X75400Y-69650D02*
G75*
G03X76050Y-69000I0J650D01*
G74*
G01*
X75400Y-68350D02*
G75*
G03X74750Y-69000I0J-650D01*
G74*
G01*
X75400Y-69850D02*
G75*
G03X76250Y-69000I0J850D01*
G74*
G01*
X75400Y-68150D02*
G75*
G03X74550Y-69000I0J-850D01*
G74*
G01*
G54D13*
X69880Y-68250D02*
X69880Y-69750D01*
G54D14*
X71607Y-69000D02*
G75*
G03X71607Y-69000I-707J0D01*
G74*
G01*
G54D15*
X69900Y-69750D02*
G75*
G03X69900Y-68249I999J750D01*
G74*
G01*
G54D16*
X70900Y-69450D02*
G75*
G03X71350Y-69000I0J450D01*
G74*
G01*
X70900Y-68550D02*
G75*
G03X70450Y-69000I0J-450D01*
G74*
G01*
X70900Y-69650D02*
G75*
G03X71550Y-69000I0J650D01*
G74*
G01*
X70900Y-68350D02*
G75*
G03X70250Y-69000I0J-650D01*
G74*
G01*
X70900Y-69850D02*
G75*
G03X71750Y-69000I0J850D01*
G74*
G01*
X70900Y-68150D02*
G75*
G03X70050Y-69000I0J-850D01*
G74*
G01*
G54D12*
X77900Y-61100D02*
X77900Y-63900D01*
X77900Y-63900D02*
X77100Y-63900D01*
X77100Y-63900D02*
X77100Y-61100D01*
X77100Y-61100D02*
X77900Y-61100D01*
X77700Y-61100D02*
X77900Y-61300D01*
G54D11*
X78501Y-68000D02*
G75*
G03X78501Y-68000I-1001J0D01*
G74*
G01*
X78501Y-65500D02*
G75*
G03X78501Y-65500I-1001J0D01*
G74*
G01*
G54D17*
X68500Y-57500D02*
X68500Y-74500D01*
X68500Y-74500D02*
X63500Y-74500D01*
X63500Y-74500D02*
X63500Y-57500D01*
X63500Y-57500D02*
X68500Y-57500D01*
X65500Y-57500D02*
X65500Y-58000D01*
X65500Y-58000D02*
X66500Y-58000D01*
X66500Y-58000D02*
X66500Y-57500D01*
G54D18*
X72000Y-67000D02*
X72000Y-66500D01*
X72000Y-66500D02*
X71500Y-66500D01*
X71500Y-67000D02*
X71500Y-66500D01*
X72000Y-67000D02*
X71500Y-67000D01*
G54D11*
X75000Y-67500D02*
X75000Y-63563D01*
X75000Y-63563D02*
X71457Y-63563D01*
X71457Y-63563D02*
X71457Y-67500D01*
X71457Y-67500D02*
X75000Y-67500D01*
G54D19*
X74119Y-65729D02*
G75*
G03X74119Y-65729I-890J0D01*
G74*
G01*
X73924Y-65729D02*
G75*
G03X73924Y-65729I-695J0D01*
G74*
G01*
X73924Y-65729D02*
G75*
G03X73924Y-65729I-695J0D01*
G74*
G01*
G54D11*
X73312Y-65729D02*
G75*
G03X73312Y-65729I-83J0D01*
G74*
G01*
X73229Y-65847D02*
X73229Y-65611D01*
X73347Y-65729D02*
X73111Y-65729D01*
X73312Y-65729D02*
G75*
G03X73312Y-65729I-83J0D01*
G74*
G01*
X73229Y-65847D02*
X73229Y-65611D01*
X73347Y-65729D02*
X73111Y-65729D01*
G54D17*
X78400Y-73000D02*
G75*
G03X78400Y-73000I-900J0D01*
G74*
G01*
X78400Y-59000D02*
G75*
G03X78400Y-59000I-900J0D01*
G74*
G01*
X65900Y-59000D02*
G75*
G03X65900Y-59000I-900J0D01*
G74*
G01*
X65900Y-73000D02*
G75*
G03X65900Y-73000I-900J0D01*
G74*
G01*
G54D13*
X72916Y-60222D02*
X72750Y-59960D01*
X72630Y-60222D02*
X72630Y-59672D01*
X72821Y-59672D01*
X72869Y-59698D01*
X72892Y-59725D01*
X72916Y-59777D01*
X72916Y-59855D01*
X72892Y-59908D01*
X72869Y-59934D01*
X72821Y-59960D01*
X72630Y-59960D01*
X73392Y-60222D02*
X73107Y-60222D01*
X73250Y-60222D02*
X73250Y-59672D01*
X73202Y-59751D01*
X73154Y-59803D01*
X73107Y-59829D01*
X72916Y-59222D02*
X72750Y-58960D01*
X72630Y-59222D02*
X72630Y-58672D01*
X72821Y-58672D01*
X72869Y-58698D01*
X72892Y-58725D01*
X72916Y-58777D01*
X72916Y-58855D01*
X72892Y-58908D01*
X72869Y-58934D01*
X72821Y-58960D01*
X72630Y-58960D01*
X73107Y-58725D02*
X73130Y-58698D01*
X73178Y-58672D01*
X73297Y-58672D01*
X73345Y-58698D01*
X73369Y-58725D01*
X73392Y-58777D01*
X73392Y-58829D01*
X73369Y-58908D01*
X73083Y-59222D01*
X73392Y-59222D01*
X73416Y-71722D02*
X73250Y-71460D01*
X73130Y-71722D02*
X73130Y-71172D01*
X73321Y-71172D01*
X73369Y-71198D01*
X73392Y-71225D01*
X73416Y-71277D01*
X73416Y-71355D01*
X73392Y-71408D01*
X73369Y-71434D01*
X73321Y-71460D01*
X73130Y-71460D01*
X73583Y-71172D02*
X73892Y-71172D01*
X73726Y-71382D01*
X73797Y-71382D01*
X73845Y-71408D01*
X73869Y-71434D01*
X73892Y-71486D01*
X73892Y-71617D01*
X73869Y-71670D01*
X73845Y-71696D01*
X73797Y-71722D01*
X73654Y-71722D01*
X73607Y-71696D01*
X73583Y-71670D01*
X73416Y-72722D02*
X73250Y-72460D01*
X73130Y-72722D02*
X73130Y-72172D01*
X73321Y-72172D01*
X73369Y-72198D01*
X73392Y-72225D01*
X73416Y-72277D01*
X73416Y-72355D01*
X73392Y-72408D01*
X73369Y-72434D01*
X73321Y-72460D01*
X73130Y-72460D01*
X73845Y-72355D02*
X73845Y-72722D01*
X73726Y-72146D02*
X73607Y-72539D01*
X73916Y-72539D01*
G54D20*
X70778Y-63621D02*
X70778Y-63321D01*
X70850Y-63321D01*
X70892Y-63335D01*
X70921Y-63364D01*
X70935Y-63392D01*
X70950Y-63450D01*
X70950Y-63492D01*
X70935Y-63550D01*
X70921Y-63578D01*
X70892Y-63607D01*
X70850Y-63621D01*
X70778Y-63621D01*
X71235Y-63621D02*
X71064Y-63621D01*
X71150Y-63621D02*
X71150Y-63321D01*
X71121Y-63364D01*
X71092Y-63392D01*
X71064Y-63407D01*
X70807Y-60621D02*
X70664Y-60621D01*
X70664Y-60321D01*
X70907Y-60464D02*
X71007Y-60464D01*
X71050Y-60621D02*
X70907Y-60621D01*
X70907Y-60321D01*
X71050Y-60321D01*
X71178Y-60621D02*
X71178Y-60321D01*
X71250Y-60321D01*
X71292Y-60335D01*
X71321Y-60364D01*
X71335Y-60392D01*
X71350Y-60450D01*
X71350Y-60492D01*
X71335Y-60550D01*
X71321Y-60578D01*
X71292Y-60607D01*
X71250Y-60621D01*
X71178Y-60621D01*
X75278Y-63621D02*
X75278Y-63321D01*
X75350Y-63321D01*
X75392Y-63335D01*
X75421Y-63364D01*
X75435Y-63392D01*
X75450Y-63450D01*
X75450Y-63492D01*
X75435Y-63550D01*
X75421Y-63578D01*
X75392Y-63607D01*
X75350Y-63621D01*
X75278Y-63621D01*
X75564Y-63350D02*
X75578Y-63335D01*
X75607Y-63321D01*
X75678Y-63321D01*
X75707Y-63335D01*
X75721Y-63350D01*
X75735Y-63378D01*
X75735Y-63407D01*
X75721Y-63450D01*
X75550Y-63621D01*
X75735Y-63621D01*
X75307Y-60621D02*
X75164Y-60621D01*
X75164Y-60321D01*
X75407Y-60464D02*
X75507Y-60464D01*
X75550Y-60621D02*
X75407Y-60621D01*
X75407Y-60321D01*
X75550Y-60321D01*
X75678Y-60621D02*
X75678Y-60321D01*
X75750Y-60321D01*
X75792Y-60335D01*
X75821Y-60364D01*
X75835Y-60392D01*
X75850Y-60450D01*
X75850Y-60492D01*
X75835Y-60550D01*
X75821Y-60578D01*
X75792Y-60607D01*
X75750Y-60621D01*
X75678Y-60621D01*
X75278Y-70621D02*
X75278Y-70321D01*
X75350Y-70321D01*
X75392Y-70335D01*
X75421Y-70364D01*
X75435Y-70392D01*
X75450Y-70450D01*
X75450Y-70492D01*
X75435Y-70550D01*
X75421Y-70578D01*
X75392Y-70607D01*
X75350Y-70621D01*
X75278Y-70621D01*
X75550Y-70321D02*
X75735Y-70321D01*
X75635Y-70435D01*
X75678Y-70435D01*
X75707Y-70450D01*
X75721Y-70464D01*
X75735Y-70492D01*
X75735Y-70564D01*
X75721Y-70592D01*
X75707Y-70607D01*
X75678Y-70621D01*
X75592Y-70621D01*
X75564Y-70607D01*
X75550Y-70592D01*
X75307Y-67621D02*
X75164Y-67621D01*
X75164Y-67321D01*
X75407Y-67464D02*
X75507Y-67464D01*
X75550Y-67621D02*
X75407Y-67621D01*
X75407Y-67321D01*
X75550Y-67321D01*
X75678Y-67621D02*
X75678Y-67321D01*
X75750Y-67321D01*
X75792Y-67335D01*
X75821Y-67364D01*
X75835Y-67392D01*
X75850Y-67450D01*
X75850Y-67492D01*
X75835Y-67550D01*
X75821Y-67578D01*
X75792Y-67607D01*
X75750Y-67621D01*
X75678Y-67621D01*
X70778Y-70621D02*
X70778Y-70321D01*
X70850Y-70321D01*
X70892Y-70335D01*
X70921Y-70364D01*
X70935Y-70392D01*
X70950Y-70450D01*
X70950Y-70492D01*
X70935Y-70550D01*
X70921Y-70578D01*
X70892Y-70607D01*
X70850Y-70621D01*
X70778Y-70621D01*
X71207Y-70421D02*
X71207Y-70621D01*
X71135Y-70307D02*
X71064Y-70521D01*
X71250Y-70521D01*
X70807Y-67621D02*
X70664Y-67621D01*
X70664Y-67321D01*
X70907Y-67464D02*
X71007Y-67464D01*
X71050Y-67621D02*
X70907Y-67621D01*
X70907Y-67321D01*
X71050Y-67321D01*
X71178Y-67621D02*
X71178Y-67321D01*
X71250Y-67321D01*
X71292Y-67335D01*
X71321Y-67364D01*
X71335Y-67392D01*
X71350Y-67450D01*
X71350Y-67492D01*
X71335Y-67550D01*
X71321Y-67578D01*
X71292Y-67607D01*
X71250Y-67621D01*
X71178Y-67621D01*
G54D13*
X77623Y-62566D02*
X77642Y-62585D01*
X77661Y-62642D01*
X77661Y-62680D01*
X77642Y-62738D01*
X77604Y-62776D01*
X77566Y-62795D01*
X77490Y-62814D01*
X77433Y-62814D01*
X77357Y-62795D01*
X77319Y-62776D01*
X77280Y-62738D01*
X77261Y-62680D01*
X77261Y-62642D01*
X77280Y-62585D01*
X77300Y-62566D01*
X77661Y-62185D02*
X77661Y-62414D01*
X77661Y-62299D02*
X77261Y-62299D01*
X77319Y-62338D01*
X77357Y-62376D01*
X77376Y-62414D01*
G54D11*
X77093Y-68050D02*
X77108Y-68064D01*
X77122Y-68107D01*
X77122Y-68135D01*
X77108Y-68178D01*
X77079Y-68207D01*
X77051Y-68221D01*
X76993Y-68235D01*
X76951Y-68235D01*
X76893Y-68221D01*
X76865Y-68207D01*
X76836Y-68178D01*
X76822Y-68135D01*
X76822Y-68107D01*
X76836Y-68064D01*
X76851Y-68050D01*
X76851Y-67935D02*
X76836Y-67921D01*
X76822Y-67892D01*
X76822Y-67821D01*
X76836Y-67792D01*
X76851Y-67778D01*
X76879Y-67764D01*
X76908Y-67764D01*
X76951Y-67778D01*
X77122Y-67950D01*
X77122Y-67764D01*
X78092Y-68166D02*
X78107Y-68178D01*
X78121Y-68214D01*
X78121Y-68238D01*
X78107Y-68273D01*
X78078Y-68297D01*
X78050Y-68309D01*
X77992Y-68321D01*
X77950Y-68321D01*
X77892Y-68309D01*
X77864Y-68297D01*
X77835Y-68273D01*
X77821Y-68238D01*
X77821Y-68214D01*
X77835Y-68178D01*
X77850Y-68166D01*
X78121Y-68059D02*
X77821Y-68059D01*
X77821Y-67964D01*
X77835Y-67940D01*
X77850Y-67928D01*
X77878Y-67916D01*
X77921Y-67916D01*
X77950Y-67928D01*
X77964Y-67940D01*
X77978Y-67964D01*
X77978Y-68059D01*
X78121Y-67678D02*
X78121Y-67821D01*
X78121Y-67750D02*
X77821Y-67750D01*
X77864Y-67773D01*
X77892Y-67797D01*
X77907Y-67821D01*
G54D21*
X77507Y-69014D02*
X77507Y-68785D01*
X77621Y-68900D02*
X77392Y-68900D01*
G54D13*
G54D11*
X77093Y-65550D02*
X77108Y-65564D01*
X77122Y-65607D01*
X77122Y-65635D01*
X77108Y-65678D01*
X77079Y-65707D01*
X77051Y-65721D01*
X76993Y-65735D01*
X76951Y-65735D01*
X76893Y-65721D01*
X76865Y-65707D01*
X76836Y-65678D01*
X76822Y-65635D01*
X76822Y-65607D01*
X76836Y-65564D01*
X76851Y-65550D01*
X76822Y-65450D02*
X76822Y-65264D01*
X76936Y-65364D01*
X76936Y-65321D01*
X76951Y-65292D01*
X76965Y-65278D01*
X76993Y-65264D01*
X77065Y-65264D01*
X77093Y-65278D01*
X77108Y-65292D01*
X77122Y-65321D01*
X77122Y-65407D01*
X77108Y-65435D01*
X77093Y-65450D01*
X78092Y-65666D02*
X78107Y-65678D01*
X78121Y-65714D01*
X78121Y-65738D01*
X78107Y-65773D01*
X78078Y-65797D01*
X78050Y-65809D01*
X77992Y-65821D01*
X77950Y-65821D01*
X77892Y-65809D01*
X77864Y-65797D01*
X77835Y-65773D01*
X77821Y-65738D01*
X77821Y-65714D01*
X77835Y-65678D01*
X77850Y-65666D01*
X78121Y-65559D02*
X77821Y-65559D01*
X77821Y-65464D01*
X77835Y-65440D01*
X77850Y-65428D01*
X77878Y-65416D01*
X77921Y-65416D01*
X77950Y-65428D01*
X77964Y-65440D01*
X77978Y-65464D01*
X77978Y-65559D01*
X78121Y-65178D02*
X78121Y-65321D01*
X78121Y-65250D02*
X77821Y-65250D01*
X77864Y-65273D01*
X77892Y-65297D01*
X77907Y-65321D01*
G54D21*
X77507Y-66514D02*
X77507Y-66285D01*
X77621Y-66400D02*
X77392Y-66400D01*
G54D13*
G54D12*
X67083Y-61533D02*
X67650Y-61533D01*
X67716Y-61500D01*
X67750Y-61466D01*
X67783Y-61400D01*
X67783Y-61266D01*
X67750Y-61200D01*
X67716Y-61166D01*
X67650Y-61133D01*
X67083Y-61133D01*
X67783Y-60433D02*
X67783Y-60833D01*
X67783Y-60633D02*
X67083Y-60633D01*
X67183Y-60700D01*
X67250Y-60766D01*
X67283Y-60833D01*
X64833Y-69750D02*
X64833Y-69416D01*
X65033Y-69816D02*
X64333Y-69583D01*
X65033Y-69350D01*
X65033Y-68716D02*
X64700Y-68950D01*
X65033Y-69116D02*
X64333Y-69116D01*
X64333Y-68850D01*
X64366Y-68783D01*
X64400Y-68750D01*
X64466Y-68716D01*
X64566Y-68716D01*
X64633Y-68750D01*
X64666Y-68783D01*
X64700Y-68850D01*
X64700Y-69116D01*
X65033Y-68416D02*
X64333Y-68416D01*
X64333Y-68250D01*
X64366Y-68150D01*
X64433Y-68083D01*
X64500Y-68050D01*
X64633Y-68016D01*
X64733Y-68016D01*
X64866Y-68050D01*
X64933Y-68083D01*
X65000Y-68150D01*
X65033Y-68250D01*
X65033Y-68416D01*
X64333Y-67716D02*
X64900Y-67716D01*
X64966Y-67683D01*
X65000Y-67650D01*
X65033Y-67583D01*
X65033Y-67450D01*
X65000Y-67383D01*
X64966Y-67350D01*
X64900Y-67316D01*
X64333Y-67316D01*
X65033Y-66983D02*
X64333Y-66983D01*
X65033Y-66650D02*
X64333Y-66650D01*
X65033Y-66250D01*
X64333Y-66250D01*
X64333Y-65783D02*
X64333Y-65650D01*
X64366Y-65583D01*
X64433Y-65516D01*
X64566Y-65483D01*
X64800Y-65483D01*
X64933Y-65516D01*
X65000Y-65583D01*
X65033Y-65650D01*
X65033Y-65783D01*
X65000Y-65850D01*
X64933Y-65916D01*
X64800Y-65950D01*
X64566Y-65950D01*
X64433Y-65916D01*
X64366Y-65850D01*
X64333Y-65783D01*
X65100Y-65350D02*
X65100Y-64816D01*
X65033Y-64650D02*
X64333Y-64650D01*
X64833Y-64416D01*
X64333Y-64183D01*
X65033Y-64183D01*
X65033Y-63850D02*
X64333Y-63850D01*
X65033Y-63516D02*
X64333Y-63516D01*
X65033Y-63116D01*
X64333Y-63116D01*
X65033Y-62783D02*
X64333Y-62783D01*
G54D15*
X77109Y-71961D02*
X76880Y-71961D01*
X76995Y-71961D02*
X76995Y-71561D01*
X76957Y-71619D01*
X76919Y-71657D01*
X76880Y-71676D01*
X77280Y-71961D02*
X77280Y-71561D01*
X77433Y-71561D01*
X77471Y-71580D01*
X77490Y-71600D01*
X77509Y-71638D01*
X77509Y-71695D01*
X77490Y-71733D01*
X77471Y-71752D01*
X77433Y-71771D01*
X77280Y-71771D01*
X77680Y-71961D02*
X77680Y-71561D01*
X77871Y-71961D02*
X77871Y-71561D01*
X78100Y-71961D01*
X78100Y-71561D01*
X77109Y-57961D02*
X76880Y-57961D01*
X76995Y-57961D02*
X76995Y-57561D01*
X76957Y-57619D01*
X76919Y-57657D01*
X76880Y-57676D01*
X77280Y-57961D02*
X77280Y-57561D01*
X77433Y-57561D01*
X77471Y-57580D01*
X77490Y-57600D01*
X77509Y-57638D01*
X77509Y-57695D01*
X77490Y-57733D01*
X77471Y-57752D01*
X77433Y-57771D01*
X77280Y-57771D01*
X77680Y-57961D02*
X77680Y-57561D01*
X77871Y-57961D02*
X77871Y-57561D01*
X78100Y-57961D01*
X78100Y-57561D01*
X64609Y-57961D02*
X64380Y-57961D01*
X64495Y-57961D02*
X64495Y-57561D01*
X64457Y-57619D01*
X64419Y-57657D01*
X64380Y-57676D01*
X64780Y-57961D02*
X64780Y-57561D01*
X64933Y-57561D01*
X64971Y-57580D01*
X64990Y-57600D01*
X65009Y-57638D01*
X65009Y-57695D01*
X64990Y-57733D01*
X64971Y-57752D01*
X64933Y-57771D01*
X64780Y-57771D01*
X65180Y-57961D02*
X65180Y-57561D01*
X65371Y-57961D02*
X65371Y-57561D01*
X65600Y-57961D01*
X65600Y-57561D01*
X64609Y-71961D02*
X64380Y-71961D01*
X64495Y-71961D02*
X64495Y-71561D01*
X64457Y-71619D01*
X64419Y-71657D01*
X64380Y-71676D01*
X64780Y-71961D02*
X64780Y-71561D01*
X64933Y-71561D01*
X64971Y-71580D01*
X64990Y-71600D01*
X65009Y-71638D01*
X65009Y-71695D01*
X64990Y-71733D01*
X64971Y-71752D01*
X64933Y-71771D01*
X64780Y-71771D01*
X65180Y-71961D02*
X65180Y-71561D01*
X65371Y-71961D02*
X65371Y-71561D01*
X65600Y-71961D01*
X65600Y-71561D01*
M02*
